<svg xmlns="http://www.w3.org/2000/svg" width="475" height="398" viewBox="0 0 475 398">
  <defs>
    <style>
      .cls-1, .cls-8 {
        fill: #fff;
      }

      .cls-2 {
        fill: #00375f;
      }

      .cls-2, .cls-3, .cls-4, .cls-7, .cls-8, .cls-9 {
        fill-rule: evenodd;
      }

      .cls-3, .cls-7 {
        fill: #005c9f;
      }

      .cls-4 {
        fill: none;
        stroke-width: 16.667px;
      }

      .cls-4, .cls-7 {
        stroke: #000;
      }

      .cls-5 {
        fill: #00ca18;
      }

      .cls-6 {
        fill: #ca0000;
      }

      .cls-7 {
        stroke-width: 8.333px;
      }
    </style>
  </defs>
  <rect id="Прямоугольник_скругл._углы_6_копия" data-name="Прямоугольник, скругл. углы 6 копия" class="cls-1" x="11" y="86" width="166" height="299" rx="10" ry="10"/>
  <path id="Прямоугольник_скругл._углы_7_копия" data-name="Прямоугольник, скругл. углы 7 копия" class="cls-2" d="M188,83l37-59a10,10,0,0,1,10,10V304c0-8.183.523,15-5,15l-42,47a10,10,0,0,1-10-10V93A10,10,0,0,1,188,83Z"/>
  <path id="Прямоугольник_скругл._углы_8_копия" data-name="Прямоугольник, скругл. углы 8 копия" class="cls-3" d="M85,11H225a10,10,0,0,1,10,10L190,77a10,10,0,0,1-10,10L33,84A10,10,0,0,1,23,74L75,21A10,10,0,0,1,85,11Z"/>
  <path id="Прямоугольник_скругл._углы_5_копия_2" data-name="Прямоугольник, скругл. углы 5 копия 2" class="cls-4" d="M71.552,21.35a10,10,0,0,1,10-10h146.5a10,10,0,0,1,10,10V301.591a10,10,0,0,1-10,10"/>
  <path id="Прямоугольник_скругл._углы_5_копия" data-name="Прямоугольник, скругл. углы 5 копия" class="cls-4" d="M19.938,84.406h146.5a10,10,0,0,1,10,10v280.25a10,10,0,0,1-10,10H19.938a10,10,0,0,1-10-10V94.406A10,10,0,0,1,19.938,84.406Z"/>
  <path id="Фигура_2_копия_5" data-name="Фигура 2 копия 5" class="cls-4" d="M12.444,87.411L74.05,12.351"/>
  <path id="Фигура_2_копия_4" data-name="Фигура 2 копия 4" class="cls-4" d="M176.448,86.411l61.606-75.06"/>
  <path id="Фигура_2_копия_3" data-name="Фигура 2 копия 3" class="cls-4" d="M173,382l64-77"/>
  <path id="Фигура_4" data-name="Фигура 4" class="cls-4" d="M32,149.5H155"/>
  <path id="Фигура_4_копия" data-name="Фигура 4 копия" class="cls-4" d="M32,179.5H155"/>
  <path id="Фигура_4_копия_2" data-name="Фигура 4 копия 2" class="cls-4" d="M32,226.5H155"/>
  <path id="Фигура_4_копия_3" data-name="Фигура 4 копия 3" class="cls-4" d="M32,257.5H155"/>
  <path id="Фигура_4_копия_4" data-name="Фигура 4 копия 4" class="cls-4" d="M33,301.5H156"/>
  <path id="Фигура_4_копия_4-2" data-name="Фигура 4 копия 4" class="cls-4" d="M33,332.5H156"/>
  <circle id="Эллипс_1_копия_3" data-name="Эллипс 1 копия 3" class="cls-5" cx="147" cy="118" r="8"/>
  <circle id="Эллипс_1_копия_2" data-name="Эллипс 1 копия 2" class="cls-6" cx="119" cy="118" r="8"/>
  <path id="Прямоугольник_скругл._углы_12_копия_3" data-name="Прямоугольник, скругл. углы 12 копия 3" class="cls-7" d="M248.5,54.239h210a10,10,0,0,1,10,10V333.761a10,10,0,0,1-10,10h-210a10,10,0,0,1-10-10V64.239A10,10,0,0,1,248.5,54.239Z"/>
  <path id="Прямоугольник_скругл._углы_12_копия_2" data-name="Прямоугольник, скругл. углы 12 копия 2" class="cls-8" d="M229.5,76.239h210a10,10,0,0,1,10,10V355.761a10,10,0,0,1-10,10h-210a10,10,0,0,1-10-10V86.239A10,10,0,0,1,229.5,76.239Z"/>
  <path id="Прямоугольник_скругл._углы_12_копия" data-name="Прямоугольник, скругл. углы 12 копия" class="cls-4" d="M229.5,76.239h210a10,10,0,0,1,10,10V355.761a10,10,0,0,1-10,10h-210a10,10,0,0,1-10-10V86.239A10,10,0,0,1,229.5,76.239Z"/>
  <path id="h" class="cls-9" d="M297.91,294.679H325.4V250.345q0-17.751,1.217-22.724,2.332-9.638,8.37-15.218a20.561,20.561,0,0,1,14.457-5.579,17.527,17.527,0,0,1,10.9,3.347q4.413,3.348,6.24,10.145t1.826,25.972v48.391h27.29V221.737q0-19.073-9.638-28.913a37.476,37.476,0,0,0-27.7-11.363,42.118,42.118,0,0,0-16.638,3.5,63.127,63.127,0,0,0-16.333,10.5V141.693H297.91V294.679Z"/>
</svg>
