<svg id="Группа_1_копия" data-name="Группа 1 копия" xmlns="http://www.w3.org/2000/svg" width="500" height="307" viewBox="0 0 500 307">
  <defs>
    <style>
      .cls-1 {
        fill: #005c9f;
      }

      .cls-1, .cls-3, .cls-4 {
        fill-rule: evenodd;
      }

      .cls-2, .cls-3 {
        fill: #fff;
      }

      .cls-3, .cls-4 {
        stroke: #000;
      }

      .cls-3 {
        stroke-width: 12.5px;
      }

      .cls-4 {
        fill: none;
        stroke-width: 16.667px;
      }
    </style>
  </defs>
  <path id="Прямоугольник_скругл._углы_3" data-name="Прямоугольник, скругл. углы 3" class="cls-1" d="M182,16H478a10,10,0,0,1,10,10s-1.445,62.823-1.445,108.147c0,4.641-4.331,8.469-7.7,11.841C432.956,191.883,326,275,326,275a10,10,0,0,1-10,10s-173.188,1.854-288.837,1.854c-1.483,0-4.077-.207-4.077-1.657C23.086,175.213,23,170,23,170c-5.523,0,0-4.477,0-10L172,26A10,10,0,0,1,182,16Z"/>
  <rect id="Прямоугольник_скругл._углы_4" data-name="Прямоугольник, скругл. углы 4" class="cls-2" x="18" y="181" width="307" height="84" rx="10" ry="10"/>
  <path id="Фигура_2_копия" data-name="Фигура 2 копия" class="cls-3" d="M206,73.493H318.237v25.4l57.312-26.984L318.237,40.953V67.937H206"/>
  <path id="Фигура_2" data-name="Фигура 2" class="cls-3" d="M300,111.575H187.465V137L130,109.986,187.465,79v27.014H300"/>
  <path id="Прямоугольник_скругл._углы_2" data-name="Прямоугольник, скругл. углы 2" class="cls-4" d="M29.938,180.938H314.469a10,10,0,0,1,10,10v64.187a10,10,0,0,1-10,10H29.938a10,10,0,0,1-10-10V190.938A10,10,0,0,1,29.938,180.938Z"/>
  <path id="Прямоугольник_скругл._углы_2_копия" data-name="Прямоугольник, скругл. углы 2 копия" class="cls-4" d="M29.938,159.906H314.469a10,10,0,0,1,10,10V275.031a10,10,0,0,1-10,10H29.938a10,10,0,0,1-10-10V169.906A10,10,0,0,1,29.938,159.906Z"/>
  <path id="Прямоугольник_скругл._углы_3_копия_3" data-name="Прямоугольник, скругл. углы 3 копия 3" class="cls-4" d="M89.673,200.918c5.746,0,14.566,5.754,14.566,11.555v23.109a10.455,10.455,0,0,1-10.4,10.5H58.248a10.455,10.455,0,0,1-10.4-10.5V212.473c0-5.8,9.86-11.555,15.606-11.555,0,0-.886,11.555,2.081,11.555H86.552C90.538,212.473,89.673,200.918,89.673,200.918Zm0,0c5.746,0,14.566,5.754,14.566,11.555v23.109a10.455,10.455,0,0,1-10.4,10.5H58.248a10.455,10.455,0,0,1-10.4-10.5V212.473c0-5.8,9.86-11.555,15.606-11.555,0,0-.886,11.555,2.081,11.555H86.552C90.538,212.473,89.673,200.918,89.673,200.918Z"/>
  <path id="Прямоугольник_скругл._углы_3_копия_2" data-name="Прямоугольник, скругл. углы 3 копия 2" class="cls-4" d="M181.673,200.918c5.746,0,14.566,5.754,14.566,11.555v23.109a10.455,10.455,0,0,1-10.4,10.5H150.248a10.455,10.455,0,0,1-10.4-10.5V212.473c0-5.8,9.86-11.555,15.606-11.555,0,0-.886,11.555,2.081,11.555h21.021C182.538,212.473,181.673,200.918,181.673,200.918Zm0,0c5.746,0,14.566,5.754,14.566,11.555v23.109a10.455,10.455,0,0,1-10.4,10.5H150.248a10.455,10.455,0,0,1-10.4-10.5V212.473c0-5.8,9.86-11.555,15.606-11.555,0,0-.886,11.555,2.081,11.555h21.021C182.538,212.473,181.673,200.918,181.673,200.918Z"/>
  <path id="Прямоугольник_скругл._углы_3_копия" data-name="Прямоугольник, скругл. углы 3 копия" class="cls-4" d="M273.673,200.918c5.746,0,14.566,5.754,14.566,11.555v23.109a10.455,10.455,0,0,1-10.4,10.5H242.248a10.455,10.455,0,0,1-10.4-10.5V212.473c0-5.8,9.86-11.555,15.606-11.555,0,0-.886,11.555,2.081,11.555h21.021C274.538,212.473,273.673,200.918,273.673,200.918Zm0,0c5.746,0,14.566,5.754,14.566,11.555v23.109a10.455,10.455,0,0,1-10.4,10.5H242.248a10.455,10.455,0,0,1-10.4-10.5V212.473c0-5.8,9.86-11.555,15.606-11.555,0,0-.886,11.555,2.081,11.555h21.021C274.538,212.473,273.673,200.918,273.673,200.918Z"/>
  <path id="Фигура_1" data-name="Фигура 1" class="cls-4" d="M23.264,163.236L179.938,19.266"/>
  <path id="Фигура_1_копия" data-name="Фигура 1 копия" class="cls-4" d="M322.269,161.021L478.943,17.051"/>
  <path id="Фигура_1_копия_2" data-name="Фигура 1 копия 2" class="cls-4" d="M322.269,281.734L478.625,138.962C480.264,137.465,480,121,480,121"/>
  <path id="Прямоугольник_скругл._углы_2_копия-2" data-name="Прямоугольник, скругл. углы 2 копия" class="cls-4" d="M172.215,27.018c6.008-7.213,8.25-11.075,14.343-11.075H469.013a11.054,11.054,0,0,1,11.033,11.075V139.979"/>
</svg>
