<svg id="ПК" xmlns="http://www.w3.org/2000/svg" width="475" height="398" viewBox="0 0 475 398">
  <defs>
    <style>
      .cls-1, .cls-7, .cls-8 {
        fill: #fff;
      }

      .cls-2, .cls-6 {
        fill: #005c9f;
      }

      .cls-2, .cls-5, .cls-6, .cls-7, .cls-8 {
        fill-rule: evenodd;
      }

      .cls-3 {
        fill: #00ca18;
      }

      .cls-4 {
        fill: #ca0000;
      }

      .cls-5 {
        fill: none;
      }

      .cls-5, .cls-6, .cls-7 {
        stroke: #000;
        stroke-width: 16.667px;
      }
    </style>
  </defs>
  <rect id="Прямоугольник_скругл._углы_6" data-name="Прямоугольник, скругл. углы 6" class="cls-1" x="11" y="86" width="166" height="299" rx="10" ry="10"/>
  <path id="Прямоугольник_скругл._углы_7" data-name="Прямоугольник, скругл. углы 7" class="cls-2" d="M188,83l37-59a10,10,0,0,1,10,10V304c0-8.183.523,15-5,15l-42,47a10,10,0,0,1-10-10V93A10,10,0,0,1,188,83Z"/>
  <path id="Прямоугольник_скругл._углы_8" data-name="Прямоугольник, скругл. углы 8" class="cls-2" d="M85,11H225a10,10,0,0,1,10,10L190,77a10,10,0,0,1-10,10L33,84A10,10,0,0,1,23,74L75,21A10,10,0,0,1,85,11Z"/>
  <circle id="Эллипс_1" data-name="Эллипс 1" class="cls-3" cx="144" cy="133" r="8"/>
  <circle id="Эллипс_1_копия" data-name="Эллипс 1 копия" class="cls-4" cx="144" cy="161" r="8"/>
  <path id="Прямоугольник_скругл._углы_5" data-name="Прямоугольник, скругл. углы 5" class="cls-5" d="M71.552,21.35a10,10,0,0,1,10-10h146.5a10,10,0,0,1,10,10V301.591a10,10,0,0,1-10,10"/>
  <path id="Прямоугольник_скругл._углы_5-2" data-name="Прямоугольник, скругл. углы 5" class="cls-5" d="M19.938,84.406h146.5a10,10,0,0,1,10,10v280.25a10,10,0,0,1-10,10H19.938a10,10,0,0,1-10-10V94.406A10,10,0,0,1,19.938,84.406Z"/>
  <path id="Фигура_2" data-name="Фигура 2" class="cls-5" d="M12.444,87.411L74.05,12.351"/>
  <path id="Фигура_2_копия" data-name="Фигура 2 копия" class="cls-5" d="M176.448,86.411l61.606-75.06"/>
  <path id="Фигура_2_копия_2" data-name="Фигура 2 копия 2" class="cls-5" d="M173,382l64-77"/>
  <path id="Прямоугольник_скругл._углы_10_копия" data-name="Прямоугольник, скругл. углы 10 копия" class="cls-6" d="M269,267H409a10,10,0,0,1,10,10v25a10,10,0,0,1-10,10H269a10,10,0,0,1-10-10V277A10,10,0,0,1,269,267Z"/>
  <path id="Прямоугольник_скругл._углы_10" data-name="Прямоугольник, скругл. углы 10" class="cls-5" d="M269,267H409a10,10,0,0,1,10,10v25a10,10,0,0,1-10,10H269a10,10,0,0,1-10-10V277A10,10,0,0,1,269,267Z"/>
  <path id="Прямоугольник_скругл._углы_9_копия" data-name="Прямоугольник, скругл. углы 9 копия" class="cls-7" d="M222.656,75.375H455.344a10,10,0,0,1,10,10v171.25a10,10,0,0,1-10,10H222.656a10,10,0,0,1-10-10V85.375A10,10,0,0,1,222.656,75.375Z"/>
  <path id="Прямоугольник_скругл._углы_9" data-name="Прямоугольник, скругл. углы 9" class="cls-5" d="M222.656,75.375H455.344a10,10,0,0,1,10,10v171.25a10,10,0,0,1-10,10H222.656a10,10,0,0,1-10-10V85.375A10,10,0,0,1,222.656,75.375Z"/>
  <path id="Фигура_3_копия" data-name="Фигура 3 копия" class="cls-8" d="M215,385l41-53H436l-39,53H215Z"/>
  <path id="Фигура_3" data-name="Фигура 3" class="cls-5" d="M221,379l35-47H428c7.041,0,3,6,3,6l-34,47H224.545C218.506,385,221,379,221,379Z"/>
</svg>
