<?xml version="1.0" encoding="UTF-8"?>
<!DOCTYPE svg PUBLIC "-//W3C//DTD SVG 1.1//EN" "http://www.w3.org/Graphics/SVG/1.1/DTD/svg11.dtd">
<!-- Creator: CorelDRAW -->
<svg xmlns="http://www.w3.org/2000/svg" xml:space="preserve" width="66.1458mm" height="66.1458mm" version="1.1" style="shape-rendering:geometricPrecision; text-rendering:geometricPrecision; image-rendering:optimizeQuality; fill-rule:evenodd; clip-rule:evenodd"
viewBox="0 0 6614.58 6614.58"
 xmlns:xlink="http://www.w3.org/1999/xlink"
 xmlns:xodm="http://www.corel.com/coreldraw/odm/2003">
 <defs>
  <style type="text/css">
   <![CDATA[
    .str12 {stroke:#2B2A29;stroke-width:150;stroke-miterlimit:22.9256}
    .str5 {stroke:#2B2A29;stroke-width:20;stroke-miterlimit:22.9256}
    .str10 {stroke:#252F34;stroke-width:20;stroke-miterlimit:22.9256}
    .str1 {stroke:#432625;stroke-width:20;stroke-miterlimit:22.9256}
    .str6 {stroke:#544545;stroke-width:20;stroke-miterlimit:22.9256}
    .str7 {stroke:#6F6464;stroke-width:20;stroke-miterlimit:22.9256}
    .str0 {stroke:#7C4444;stroke-width:20;stroke-miterlimit:22.9256}
    .str11 {stroke:#9B6B55;stroke-width:20;stroke-miterlimit:22.9256}
    .str2 {stroke:#DF856B;stroke-width:20;stroke-miterlimit:22.9256}
    .str3 {stroke:#F0C6B1;stroke-width:20;stroke-miterlimit:22.9256}
    .str4 {stroke:#F1C7B2;stroke-width:20;stroke-miterlimit:22.9256}
    .str9 {stroke:#FF8B00;stroke-width:20;stroke-miterlimit:22.9256}
    .str8 {stroke:#FFAC19;stroke-width:20;stroke-miterlimit:22.9256}
    .fil12 {fill:none}
    .fil5 {fill:#2B2A29}
    .fil13 {fill:#252F34}
    .fil1 {fill:#432625}
    .fil6 {fill:#544545}
    .fil7 {fill:#6F6464}
    .fil0 {fill:#7C4444}
    .fil14 {fill:#9B6B55}
    .fil2 {fill:#DF856B}
    .fil3 {fill:#F0C6B1}
    .fil4 {fill:#F1C7B2}
    .fil9 {fill:#FF8B00}
    .fil11 {fill:#FF8E06}
    .fil10 {fill:#FF9211}
    .fil8 {fill:#FFAC19}
   ]]>
  </style>
 </defs>
 <g id="Слой_x0020_1">
  <metadata id="CorelCorpID_0Corel-Layer"/>
  <path class="fil0 str0" d="M2830.16 4065.77c13.61,-21.27 42.54,-26.38 65.52,-39.99 22.97,-13.61 39.98,-35.74 51.04,-57.86 11.06,-22.12 16.17,-44.25 30.64,-62.12 14.46,-17.86 38.28,-31.48 65.51,-38.29 27.23,-6.8 57.86,-6.8 78.28,2.56 20.42,9.36 30.64,28.07 38.3,54.45 7.65,26.38 12.76,60.41 17.87,90.19 5.1,29.79 10.2,55.31 20.64,71.57 10.43,16.27 26.2,23.26 44.9,30.54 18.7,7.28 40.34,14.85 63.09,21.56 22.75,6.71 46.61,12.57 84.91,15.5 38.31,2.93 91.07,2.93 124.25,4.63 33.18,1.7 46.8,5.11 55.3,22.97 8.51,17.87 11.92,50.21 20.99,78.43 9.08,28.22 23.83,52.32 40.85,66.78 17.02,14.47 36.3,19.3 56.15,18.3 19.86,-0.99 40.28,-7.79 57.29,-22.26 17.02,-14.46 30.64,-36.59 42.55,-55.31 11.91,-18.71 22.13,-34.03 40.85,-43.39 18.72,-9.35 45.94,-12.76 70.61,-9.36 24.68,3.41 46.81,13.62 62.97,28.93 16.17,15.32 26.38,35.74 39.99,52.75 13.62,17.02 30.63,30.64 44.33,33.19 13.7,2.56 24.08,-5.95 38.54,-18.71 14.47,-12.76 33.02,-29.79 62.45,-49.98 29.43,-20.18 69.73,-43.54 98.66,-43.54 28.93,0 46.49,23.36 58.67,49.5 12.18,26.14 18.99,55.07 1.12,75.49 -17.87,20.42 -60.41,32.34 -90.2,52.76 -29.78,20.42 -46.79,49.35 -62.96,74.87 -16.17,25.53 -31.48,47.66 -61.26,58.72 -29.78,11.06 -74.03,11.06 -152.31,11.06 -78.28,0 -190.59,0 -246.75,12.76 -56.16,12.77 -56.16,38.29 -65.52,59.56 -9.36,21.28 -28.08,38.29 -57.01,51.9 -28.93,13.62 -68.07,23.83 -108.92,28.08 -40.84,4.26 -83.38,2.56 -127.63,1.71 -44.25,-0.85 -90.19,-0.85 -127.63,21.27 -37.44,22.12 -66.37,66.37 -85.94,96.15 -19.57,29.78 -29.78,45.09 -44.24,54.45 -14.47,9.36 -33.19,12.77 -45.1,16.17 -11.91,3.4 -17.02,6.81 -26.38,22.97 -9.36,16.17 -22.97,45.1 -31.48,64.67 -8.51,19.57 -11.92,29.78 -23.83,36.59 -11.91,6.81 -32.33,10.21 -46.79,22.12 -14.47,11.92 -22.98,32.34 -32.34,51.06 -9.36,18.72 -19.57,35.73 -14.46,52.75 5.1,17.02 25.53,34.03 -5.1,45.94 -30.64,11.92 -112.32,18.73 -171.03,19.58 -58.72,0.85 -94.45,-4.25 -128.48,-8.51 -34.04,-4.25 -66.38,-7.66 -89.35,-39.99 -22.97,-32.33 -36.59,-93.6 -44.24,-147.21 -7.66,-53.6 -9.37,-99.54 -1.71,-136.98 7.66,-37.44 24.68,-66.37 45.96,-96.15 21.27,-29.78 46.79,-60.42 88.49,-74.89 41.69,-14.46 99.54,-12.75 151.45,-10.2 51.9,2.55 97.85,5.96 125.93,-3.4 28.08,-9.36 38.29,-31.49 39.99,-72.33 1.7,-40.84 -5.1,-100.41 -13.61,-151.46 -8.51,-51.05 -18.72,-93.6 -24.67,-141.25 -5.96,-47.64 -7.67,-100.4 -9.37,-145.5 -1.7,-45.09 -3.4,-82.53 10.22,-103.8z"/>
  <path class="fil1 str1" d="M2439.87 5131.89c-25.33,15.45 -1,86.02 11.16,127.17 12.16,41.15 12.16,52.9 25.86,58.77 13.7,5.87 41.1,5.87 130.15,6.85 89.04,0.98 239.74,2.93 315.09,-6.86 75.34,-9.78 75.34,-31.3 75.34,-51.85 0,-20.55 0,-40.13 -6.85,-53.83 -6.85,-13.7 -20.55,-21.52 -42.33,-29.59 -21.79,-8.06 -51.66,-16.37 -90.89,-14.17 -39.23,2.21 -87.83,14.93 -129.76,21.25 -41.94,6.32 -77.22,6.24 -132.34,-13.63 -55.13,-19.87 -130.11,-59.55 -155.43,-44.11z"/>
  <path class="fil1 str1" d="M3670 4578.19c-35.38,17.01 -50.82,40.96 -64.1,56.4 -13.27,15.45 -24.38,22.39 -13.87,32.1 10.51,9.71 42.64,22.19 96.86,27.44 54.23,5.26 130.55,3.31 174.18,10.95 43.63,7.64 54.57,24.89 54.73,46.77 0.16,21.89 -10.45,48.41 -24.73,65.23 -14.27,16.82 -32.2,23.94 -56.36,31.74 -24.15,7.8 -54.51,16.29 -63.32,97.51 -8.81,81.22 3.95,235.16 16.19,309.2 12.25,74.04 23.99,68.17 34.75,65.23 10.77,-2.93 20.55,-2.93 100.79,0 80.24,2.94 230.94,8.81 305.3,5.87 74.37,-2.93 72.42,-14.68 71.44,-34.25 -0.98,-19.57 -0.98,-46.96 -10.77,-62.62 -9.78,-15.66 -29.35,-19.57 -53.82,-25.45 -24.46,-5.87 -53.81,-13.69 -71.43,-29.35 -17.61,-15.65 -23.48,-39.14 -26.42,-63.6 -2.93,-24.46 -2.93,-49.91 5.87,-66.55 8.81,-16.63 26.43,-24.46 46,-31.31 19.57,-6.85 41.09,-12.72 56.75,-22.51 15.66,-9.78 25.44,-23.48 33.27,-41.1 7.83,-17.61 13.7,-39.13 16.63,-63.6 2.94,-24.46 2.94,-51.86 2.94,-82.2 0,-30.33 0,-63.6 17.61,-85.13 17.62,-21.52 52.84,-31.31 67.84,-35.55 15.01,-4.24 9.79,-2.93 6.03,-16.97 -3.75,-14.04 -6.04,-43.41 -5.44,-75.62 0.61,-32.21 4.12,-67.24 7.18,-110.16 3.07,-42.92 5.7,-93.72 5.26,-137.52 -0.43,-43.79 -3.94,-80.58 0.66,-127.35 4.61,-46.77 17.32,-103.52 8.02,-134.83 -9.3,-31.31 -40.62,-37.19 -63.13,-36.21 -22.5,0.98 -36.2,8.81 -45.99,32.29 -9.78,23.49 -15.65,62.63 -19.25,92.24 -3.59,29.61 -4.92,49.69 1.61,70.8 6.53,21.12 20.91,43.27 26.41,60.48 5.5,17.21 2.12,29.47 -6.9,40.27 -9.02,10.81 -23.69,20.14 -44.63,34.6 -20.93,14.47 -48.13,34.06 -70.59,56.47 -22.46,22.41 -40.18,47.65 -54.98,64.24 -14.8,16.6 -26.69,24.55 -45.24,30.26 -18.55,5.72 -43.77,9.2 -81.42,11.09 -37.65,1.89 -87.74,2.21 -121.14,2.53 -33.39,0.33 -50.1,0.68 -86.11,5.88 -36,5.21 -91.3,15.29 -126.68,32.29z"/>
  <path class="fil2 str2" d="M2881.26 2591.35c-17.62,6.85 -25.44,34.25 -37.18,60.67 -11.75,26.42 -27.41,51.87 -51.87,64.59 -24.47,12.72 -57.74,12.72 -81.22,25.44 -23.49,12.72 -37.19,38.16 -42.08,85.13 -4.89,46.97 -0.98,115.47 -3.91,185.93 -2.94,70.45 -12.72,142.86 -17.61,203.53 -4.9,60.67 -4.9,109.6 1.95,170.27 6.85,60.67 20.55,133.08 28.38,181.03 7.83,47.95 9.78,71.43 33.27,90.02 23.48,18.6 68.5,32.3 98.84,53.83 30.33,21.53 45.98,50.88 48.92,95.89 2.93,45.02 -6.85,105.69 -12.57,150.71 -5.72,45.03 -7.37,74.4 2.73,82.42 10.09,8.03 31.93,-5.3 53.65,-26.93 21.71,-21.62 43.3,-51.55 61.86,-75.59 18.56,-24.04 34.1,-42.2 47.84,-53.62 13.73,-11.41 25.67,-16.09 38.21,-19.23 12.54,-3.13 25.69,-4.74 42.93,-0.52 17.23,4.22 38.57,14.25 53.11,32.03 14.53,17.79 22.28,43.31 30.85,76.39 8.57,33.08 17.97,73.72 25.55,98.52 7.58,24.81 13.33,33.78 37.01,44.68 23.68,10.9 65.29,23.72 94.03,30.15 28.75,6.43 44.64,6.48 73.85,6.78 29.22,0.31 71.77,0.87 98.29,1.77 26.53,0.91 37.03,2.15 48.1,12.67 11.08,10.52 22.73,30.31 30.09,46.99 7.37,16.69 10.47,30.25 18.54,49.37 8.07,19.12 21.11,43.8 42.39,56.58 21.28,12.79 50.78,13.68 70.06,11.41 19.29,-2.26 28.36,-7.7 52.56,-28.48 24.2,-20.77 63.53,-56.88 94.82,-73.3 31.3,-16.41 54.56,-13.12 71.05,-8.25 16.5,4.87 26.23,11.32 37.76,23.33 11.54,12.02 24.87,29.61 39.19,44.78 14.33,15.17 29.64,27.94 48.98,28.43 19.35,0.5 42.72,-11.27 73.63,-29.28 30.92,-18.01 69.38,-42.25 95.71,-58 26.33,-15.75 40.53,-23 48.12,-32.55 7.6,-9.55 8.59,-21.41 12.29,-42.71 3.71,-21.3 10.12,-52.04 20.99,-72.8 10.88,-20.75 26.21,-31.52 40.31,-36.07 14.11,-4.55 26.99,-2.88 38.89,1.36 11.91,4.24 22.85,11.06 35.83,0.02 12.99,-11.04 28.02,-39.93 35.54,-70.04 7.52,-30.1 7.52,-61.42 5.56,-98.61 -1.96,-37.18 -5.87,-80.23 -7.83,-129.16 -1.96,-48.93 -1.96,-103.73 3.91,-142.87 5.87,-39.14 17.62,-62.63 28.38,-74.37 10.77,-11.74 20.55,-11.74 36.21,-11.74 15.66,0 37.18,0 52.84,0 15.66,0 25.44,0 34.25,-12.72 8.81,-12.72 16.63,-38.17 20.54,-56.76 3.92,-18.59 3.92,-30.34 2.94,-58.72 -0.98,-28.37 -2.93,-73.38 -3.91,-104.69 -0.98,-31.32 -0.98,-48.93 -0.98,-75.35 0,-26.43 0,-61.65 2.93,-96.88 2.94,-35.23 8.82,-70.45 10.77,-97.85 1.96,-27.4 0,-46.97 -3.92,-72.41 -3.91,-25.45 -9.78,-56.76 -5.13,-101.91 4.66,-45.15 19.84,-104.14 3.2,-107.07 -16.63,-2.94 -65.08,50.18 -105.94,81.63 -40.86,31.45 -74.13,41.23 -104.47,53.96 -30.33,12.72 -57.73,28.37 -81.22,49.9 -23.48,21.53 -43.05,48.93 -64.58,67.52 -21.53,18.59 -45.01,28.38 -72.41,43.06 -27.4,14.67 -58.72,34.24 -92.97,48.92 -34.24,14.68 -71.43,24.46 -118.4,29.36 -46.97,4.89 -103.72,4.89 -157.54,4.89 -53.82,0 -104.71,0 -152.66,0 -47.94,0 -92.96,0 -128.19,0 -35.22,0 -60.67,0 -93.94,-14.68 -33.27,-14.68 -74.37,-44.03 -102.75,-64.58 -28.38,-20.55 -44.03,-32.3 -69.47,-51.87 -25.45,-19.57 -60.67,-46.96 -90.02,-75.34 -29.36,-28.38 -52.85,-57.73 -86.12,-100.79 -33.27,-43.06 -76.32,-99.81 -105.68,-135.04 -29.36,-35.23 -45.01,-48.93 -66.54,-62.63 -21.53,-13.7 -48.93,-27.4 -66.54,-20.55z"/>
  <path class="fil3 str3" d="M3109.02 2876.22c-41.01,-2.38 -78.2,-2.38 -124.19,-1.4 -45.99,0.98 -100.79,2.93 -134.06,27.4 -33.27,24.46 -45.02,71.43 -50.89,109.6 -5.87,38.16 -5.87,67.51 -1.95,92.96 3.91,25.44 11.74,46.96 33.27,61.64 21.53,14.68 56.75,22.51 88.07,27.41 31.31,4.89 58.71,6.84 72.41,25.44 13.7,18.59 13.7,53.81 19.57,80.23 5.87,26.42 17.62,44.04 37.19,55.78 19.57,11.74 46.97,17.62 91.99,18.59 45.01,0.98 107.63,-2.93 173.19,-2.93 65.57,0 134.06,3.91 193.75,10.76 59.69,6.85 110.58,16.64 167.33,21.53 56.76,4.89 119.39,4.89 181.04,4.89 61.65,0 122.31,0 165.36,-4.89 43.06,-4.89 68.51,-14.68 84.16,-33.27 15.66,-18.59 21.53,-45.99 21.53,-72.41 0,-26.42 -5.87,-51.87 10.76,-70.46 16.64,-18.59 55.79,-30.34 87.1,-28.38 31.31,1.96 54.8,17.61 69.47,37.19 14.68,19.57 20.56,43.05 26.43,61.65 5.87,18.59 11.74,32.29 31.31,47.94 19.57,15.66 52.84,33.28 83.17,42.08 30.34,8.81 57.74,8.81 82.2,3.91 24.47,-4.89 45.99,-14.67 61.65,-26.42 15.66,-11.74 25.44,-25.43 30.33,-47.94 4.9,-22.51 4.9,-53.82 5.88,-88.07 0.98,-34.25 2.93,-71.44 0.97,-95.9 -1.95,-24.46 -7.82,-36.21 -37.18,-44.03 -29.35,-7.83 -82.2,-11.75 -130.15,-15.66 -47.95,-3.91 -91,-7.83 -145.8,-10.76 -54.8,-2.94 -121.34,-4.89 -173.2,0.98 -51.86,5.87 -89.05,19.57 -130.15,28.38 -41.09,8.8 -86.11,12.72 -145.08,6.95 -58.97,-5.77 -131.91,-21.22 -184.17,-27.32 -52.26,-6.1 -83.86,-2.85 -109.82,-4.19 -25.95,-1.34 -46.28,-7.27 -67.5,-18 -21.21,-10.74 -43.32,-26.28 -68,-36.42 -24.67,-10.15 -51.91,-14.91 -75.72,-22.84 -23.8,-7.94 -44.17,-19.06 -61.87,-36.61 -17.7,-17.56 -32.72,-41.54 -62.65,-55.91 -29.93,-14.37 -74.75,-19.13 -115.75,-21.5z"/>
  <path class="fil4 str4" d="M3459.42 3726.15c-11.74,-24.46 -27.39,-42.08 -47.94,-50.89 -20.55,-8.8 -46,-8.8 -64.59,-14.67 -18.59,-5.87 -30.33,-17.62 -35.22,-35.23 -4.89,-17.61 -2.94,-41.1 13.69,-56.76 16.64,-15.65 47.96,-23.48 87.1,-27.4 39.14,-3.91 86.11,-3.91 132.1,-4.89 45.99,-0.98 91.01,-2.93 130.15,-3.91 39.14,-0.98 72.41,-0.98 107.63,-0.98 35.23,0 72.42,0 101.77,3.91 29.36,3.92 50.89,11.74 62.63,24.46 11.75,12.73 13.7,30.34 14.68,45.02 0.98,14.68 0.98,26.42 -11.74,39.14 -12.72,12.72 -38.17,26.42 -70.46,31.31 -32.29,4.9 -71.43,0.98 -105.68,0 -34.25,-0.97 -63.6,0.98 -84.15,9.79 -20.55,8.81 -32.3,24.46 -40.13,46.97 -7.82,22.51 -11.74,51.86 -15.66,70.45 -3.91,18.6 -7.82,26.43 -5.87,36.21 1.96,9.79 9.79,21.53 41.1,30.33 31.32,8.81 86.12,14.69 128.19,16.64 42.08,1.96 71.44,0.01 94.92,-1.95 23.49,-1.96 41.1,-3.92 56.76,12.71 15.66,16.64 29.35,51.87 30.33,73.4 0.98,21.53 -10.76,29.35 -29.35,32.28 -18.59,2.94 -44.04,0.99 -61.66,0.01 -17.61,-0.98 -27.39,-0.98 -40.12,14.67 -12.72,15.66 -28.37,46.98 -36.2,64.59 -7.83,17.61 -7.83,21.53 -8.81,33.27 -0.98,11.74 -2.93,31.32 -12.72,42.08 -9.78,10.77 -27.4,12.72 -46.97,11.74 -19.57,-0.97 -41.09,-4.89 -63.6,-24.46 -22.51,-19.57 -45.99,-54.8 -56.76,-76.33 -10.76,-21.53 -8.81,-29.35 -34.25,-36.2 -25.44,-6.85 -78.28,-12.73 -120.36,-17.62 -42.07,-4.89 -73.39,-8.81 -90.03,-13.7 -16.63,-4.89 -18.58,-10.76 -22.5,-29.35 -3.91,-18.59 -9.79,-49.91 5.87,-67.53 15.66,-17.61 52.84,-21.52 77.3,-24.46 24.47,-2.94 36.22,-4.89 42.09,-15.66 5.87,-10.76 5.87,-30.33 1.95,-55.77 -3.91,-25.44 -11.74,-56.76 -23.49,-81.22z"/>
  <path class="fil4 str4" d="M4226.6 3534.35c-25.44,2.94 -45.01,2.94 -60.67,12.72 -15.65,9.79 -27.4,29.36 -34.25,46.97 -6.85,17.62 -8.8,33.27 4.9,45.01 13.7,11.75 43.05,19.58 65.56,24.47 22.51,4.9 38.16,6.85 52.84,24.46 14.68,17.62 28.38,50.89 40.12,73.39 11.75,22.51 21.53,34.26 22.51,50.89 0.98,16.64 -6.85,38.16 -19.57,51.86 -12.72,13.7 -30.34,19.58 -47.95,22.51 -17.61,2.94 -35.23,2.94 -48.93,1.96 -13.7,-0.98 -23.48,-2.93 -31.31,14.68 -7.83,17.61 -13.7,54.8 -18.59,91.98 -4.89,37.18 -8.81,74.37 -9.79,101.77 -0.97,27.4 0.98,45.01 9.02,67.17 8.05,22.17 22.18,48.87 37.13,60.03 14.95,11.16 30.71,6.76 46.19,-4.99 15.48,-11.74 30.67,-30.85 41.47,-55.78 10.81,-24.92 17.22,-55.66 20.12,-94.45 2.9,-38.79 2.28,-85.63 6.86,-119.81 4.59,-34.18 14.37,-55.71 31,-66.48 16.64,-10.76 40.13,-10.76 61.65,-10.76 21.53,0 41.1,0 54.8,-10.77 13.7,-10.76 21.53,-32.28 24.46,-59.68 2.94,-27.4 0.99,-60.67 -0.97,-91.99 -1.96,-31.31 -3.91,-60.66 -4.89,-83.17 -0.98,-22.51 -0.98,-38.16 -7.83,-52.84 -6.85,-14.68 -20.55,-28.38 -46,-37.19 -25.44,-8.8 -62.62,-12.72 -96.87,-11.74 -34.25,0.98 -65.57,6.85 -91.01,9.78z"/>
  <path class="fil2 str2" d="M4790.05 4578.01c-11.25,32.64 -18.01,70.91 -33.77,91.16 -15.75,20.26 -40.5,22.51 -73.14,22.51 -32.63,0 -73.15,-2.25 -104.66,-6.75 -31.5,-4.5 -54.01,-11.26 -75.78,-34.18 -21.77,-22.91 -42.81,-61.99 -54.71,-115.63 -11.89,-53.63 -14.64,-121.82 -10.36,-191.36 4.29,-69.54 15.62,-140.43 46.64,-168.95 31.03,-28.51 81.75,-14.64 116.11,11.42 34.37,26.06 52.38,64.32 76.01,93.58 23.63,29.26 52.89,49.51 104.65,60.76 51.77,11.26 126.05,13.51 165.43,21.38 39.39,7.88 43.89,21.39 33.76,40.52 -10.13,19.13 -34.88,43.88 -61.89,59.63 -27.01,15.76 -56.27,22.52 -78.78,39.4 -22.5,16.88 -38.26,43.88 -49.51,76.51z"/>
  <path class="fil2 str2" d="M4946.47 3181.49c-23.63,31.51 -75.4,22.5 -108.03,1.12 -32.63,-21.38 -46.14,-55.14 -56.27,-108.03 -10.12,-52.89 -16.88,-124.91 -15.76,-186.8 1.13,-61.9 10.14,-113.66 33.77,-138.42 23.63,-24.76 61.89,-22.51 86.64,-10.13 24.76,12.38 36.02,34.88 46.14,81.02 10.13,46.14 19.14,115.92 25.89,186.82 6.75,70.89 11.25,142.91 -12.38,174.42z"/>
  <path class="fil0 str0" d="M4810.46 3174c-20.27,16.88 -29.35,72.95 -32.76,123.49 -3.41,50.54 -1.15,95.56 -10.16,132.69 -9,37.14 -29.25,66.4 -46.13,88.9 -16.88,22.51 -30.39,38.27 -41.64,60.77 -11.25,22.51 -20.26,51.77 -29.26,96.78 -9,45.02 -18.01,105.78 -27.01,151.92 -9,46.14 -18.01,77.65 -23.64,102.4 -5.62,24.76 -7.87,42.77 -21.38,64.15 -13.5,21.38 -38.25,46.14 -64.14,66.31 -25.89,20.18 -52.91,35.76 -65.68,51.3 -12.77,15.54 -11.29,31.04 4.17,49 15.47,17.97 44.92,38.4 73.63,44.8 28.71,6.41 56.69,-1.22 81.55,8.65 24.87,9.88 46.62,37.27 74.94,61.08 28.32,23.82 63.21,44.08 94.41,56.12 31.21,12.04 58.75,15.87 86.32,19.43 27.57,3.57 55.18,6.86 75.92,-11.56 20.75,-18.41 34.63,-58.55 46.07,-114.63 11.44,-56.07 20.45,-128.1 22.7,-204.62 2.25,-76.52 -2.26,-157.55 -7.89,-237.45 -5.62,-79.89 -12.37,-158.67 -19.12,-227.32 -6.75,-68.64 -13.51,-127.15 -19.33,-187.92 -5.81,-60.77 -10.68,-123.78 -21.92,-151.91 -11.23,-28.14 -28.83,-21.38 -53.37,-29.16 -24.53,-7.78 -56,-30.1 -76.28,-13.22z"/>
  <path class="fil5 str5" d="M4828.29 2410.52c-15.32,5.95 -30.63,14.46 -44.25,28.08 -13.61,13.61 -25.53,32.33 -41.7,54.46 -16.16,22.12 -36.58,47.64 -52.75,80.83 -16.16,33.19 -28.08,74.03 -40.3,121.71 -12.21,47.68 -24.72,102.2 -25.89,145.17 -1.16,42.96 9.04,74.38 13.89,110.31 4.85,35.93 4.37,76.38 2.81,112.83 -1.56,36.44 -4.18,68.88 -5.41,105.74 -1.22,36.86 -1.04,78.14 -0.3,116.23 0.74,38.08 2.05,72.97 2.21,100.2 0.16,27.24 -0.82,46.82 -4.74,66.06 -3.91,19.25 -10.75,38.17 -19.89,49.75 -9.13,11.58 -20.54,15.82 -35.06,17.94 -14.51,2.12 -32.13,2.12 -46.97,4.07 -14.84,1.96 -26.91,5.88 -36.14,13.7 -9.22,7.82 -15.59,19.54 -18.99,41.91 -3.39,22.38 -3.81,55.39 -3.2,86.49 0.61,31.11 2.25,60.31 1.71,103.93 -0.54,43.62 -3.24,101.67 -7.9,145.1 -4.65,43.43 -11.24,72.23 -25.21,92.24 -13.97,20.02 -35.32,31.25 -45.47,49.12 -10.15,17.87 -9.12,42.39 -6.38,70.06 2.75,27.68 7.21,58.51 9.06,84.53 1.85,26.03 1.11,47.24 0.68,82.17 -0.43,34.93 -0.54,83.58 -1.16,117.11 -0.61,33.54 -1.72,51.97 -2.98,70.36 -1.26,18.39 -2.67,36.74 -3.76,61.43 -1.08,24.69 -1.85,55.73 -1.44,77.51 0.41,21.79 2.01,34.34 2.56,43.16 0.55,8.83 0.07,13.95 1.24,28.96 1.18,15.02 4.02,39.95 7.14,57.51 3.12,17.57 6.53,27.78 19.29,37.14 12.77,9.36 34.89,17.87 65.52,26.38 30.64,8.51 69.79,17.02 99.57,22.12 29.78,5.11 50.2,6.81 79.98,8.51 29.78,1.7 68.93,3.41 102.52,-8.81 33.59,-12.21 61.64,-38.35 65.89,-60.48 4.26,-22.12 -15.28,-40.23 -21.02,-64.1 -5.73,-23.87 2.33,-53.49 -25.5,-57.77 -27.82,-4.28 -91.54,16.77 -132.1,26.45 -40.56,9.69 -57.96,7.99 -79.3,1.45 -21.33,-6.54 -46.59,-17.94 -59.42,-51.1 -12.82,-33.16 -13.21,-88.1 -17.25,-149.5 -4.04,-61.39 -11.74,-129.24 -20.55,-191.45 -8.81,-62.21 -18.74,-118.76 -12.76,-155.59 5.98,-36.83 27.88,-53.93 53.08,-84.23 25.2,-30.29 53.7,-73.77 74.13,-125.25 20.44,-51.47 32.8,-110.92 43.17,-161.53 10.38,-50.61 18.76,-92.38 25.9,-121.17 7.14,-28.78 13.03,-44.6 19.2,-57.73 6.18,-13.12 12.65,-23.57 27.27,-48.52 14.63,-24.94 37.43,-64.38 51.84,-116.97 14.41,-52.59 20.45,-118.31 27.6,-161.01 7.15,-42.7 15.43,-62.36 14.85,-88.76 -0.58,-26.41 -10.01,-59.55 -16.79,-91.62 -6.77,-32.08 -10.88,-63.08 -13.51,-94.21 -2.63,-31.14 -3.76,-62.4 1.3,-101.1 5.06,-38.7 16.31,-84.84 28.84,-111.06 12.54,-26.22 26.36,-32.51 40.8,-34.2 14.44,-1.69 29.5,1.23 49.4,-12.53 19.91,-13.76 44.65,-44.19 67.03,-67 22.39,-22.81 42.43,-37.98 45.83,-64.36 3.4,-26.38 -9.82,-63.96 -18.14,-91.26 -8.31,-27.3 -11.72,-44.32 -20.23,-59.63 -8.5,-15.32 -22.12,-28.94 -38.29,-35.74 -16.16,-6.81 -34.89,-6.81 -51.91,-5.11 -17.02,1.7 -32.33,5.11 -47.65,11.07z"/>
  <path class="fil5 str5" d="M4980.22 2599.79c26.44,-16.85 48.25,2.4 67.29,37.93 19.04,35.53 35.32,87.33 52.34,153.93 17.02,66.6 34.78,147.99 48.84,243.45 14.06,95.46 24.42,204.97 26.64,302.65 2.22,97.68 -3.7,183.51 -8.88,276 -5.18,92.5 -9.62,191.66 -8.88,281.19 0.74,89.54 6.66,169.45 4.44,256.03 -2.22,86.58 -12.58,179.81 -24.42,247.89 -11.84,68.08 -25.16,111 -52.54,145.04 -27.38,34.04 -68.81,59.2 -100.63,93.98 -31.82,34.78 -54.02,79.17 -85.39,106.51 -31.37,27.34 -71.9,37.61 -91.76,30.96 -19.86,-6.64 -19.03,-30.22 -18.62,-42.01 0.41,-11.78 0.41,-11.78 -1.78,-27.92 -2.19,-16.13 -6.56,-48.4 1.85,-85.08 8.42,-36.67 29.63,-77.76 53.36,-104.87 23.74,-27.1 50,-40.24 73.44,-56.75 23.45,-16.5 44.08,-36.37 48.77,-53.07 4.69,-16.69 -6.57,-30.19 -8.27,-49.57 -1.7,-19.37 6.16,-44.61 9.4,-74.23 3.24,-29.61 1.87,-63.59 8.26,-107.8 6.39,-44.21 20.54,-98.64 27.1,-152.86 6.56,-54.21 5.53,-108.2 2.35,-171.35 -3.17,-63.14 -8.49,-135.43 -13.56,-196.5 -5.07,-61.06 -9.89,-110.91 -15.7,-169.31 -5.8,-58.39 -12.59,-125.33 -14.59,-186.07 -2,-60.74 0.79,-115.27 -2.8,-193.85 -3.59,-78.59 -13.55,-181.22 -25.42,-248.82 -11.87,-67.61 -25.64,-100.17 -16.99,-142.93 8.65,-42.77 39.72,-95.72 66.15,-112.57z"/>
  <path class="fil5 str5" d="M4384.82 4707.11c-16.46,-17.77 -31.04,-16.87 -46.52,-5.68 -15.48,11.19 -31.85,32.68 -40.86,64.49 -9,31.82 -10.63,73.97 -12.45,100.45 -1.81,26.48 -3.8,37.29 -12.12,54.74 -8.31,17.45 -22.96,41.54 -39.74,57.33 -16.78,15.8 -35.69,23.31 -49.5,28.96 -13.81,5.65 -22.5,9.46 -31.15,25.77 -8.64,16.31 -17.24,45.12 -20.3,65.25 -3.05,20.14 -0.57,31.6 3.83,42.2 4.41,10.6 10.73,20.34 30.71,31.43 19.99,11.09 53.64,23.53 74.51,32.66 20.88,9.13 28.98,14.97 34.83,28.32 5.85,13.35 9.44,34.23 6.91,49.64 -2.53,15.42 -11.17,25.38 -23.08,31.09 -11.91,5.71 -27.07,7.16 -60.1,7.76 -33.03,0.6 -83.93,0.33 -134.81,-0.65 -50.88,-0.97 -101.76,-2.67 -147.81,-7.8 -46.05,-5.12 -87.27,-13.69 -108.64,-24.78 -21.36,-11.09 -22.86,-24.7 -23.97,-57.62 -1.11,-32.92 -1.83,-85.15 -6.21,-129.63 -4.38,-44.48 -12.41,-81.23 -11.08,-107.31 1.34,-26.07 12.06,-41.48 19.25,-58.84 7.19,-17.36 10.85,-36.66 27.92,-53.82 17.08,-17.15 47.57,-32.14 73.23,-48.35 25.67,-16.21 46.52,-33.64 49.04,-53.87 2.52,-20.23 -13.28,-43.28 -29.53,-56.88 -16.25,-13.6 -32.94,-17.77 -61.31,-20.96 -28.36,-3.19 -68.4,-5.41 -114.78,-11.68 -46.38,-6.26 -99.11,-16.58 -147.23,-17.52 -48.11,-0.93 -91.62,7.51 -128.27,12.14 -36.64,4.64 -66.42,5.48 -108.97,9.31 -42.54,3.83 -97.84,10.65 -133.51,21.28 -35.67,10.63 -51.71,25.07 -73.4,50.17 -21.7,25.1 -49.06,60.86 -70.25,81.44 -21.2,20.58 -36.24,25.97 -50.9,37.82 -14.66,11.85 -28.95,30.16 -42.56,50.86 -13.62,20.71 -26.56,43.81 -40.83,59.04 -14.27,15.24 -29.86,22.62 -43.05,34.81 -13.19,12.2 -23.97,29.22 -31.77,46.52 -7.8,17.3 -12.62,34.89 -15.03,43.68 -2.41,8.79 -2.41,8.79 13.03,17.23 15.43,8.44 46.3,25.31 65.75,35.58 19.44,10.27 27.46,13.92 34.52,18.85 7.05,4.94 13.14,11.14 16.73,26.91 3.58,15.77 4.66,41.11 -6.75,58.72 -11.42,17.61 -35.33,27.51 -59.86,33.39 -24.54,5.89 -49.7,7.77 -86.99,9.04 -37.29,1.28 -86.71,1.95 -137.53,2.02 -50.83,0.07 -103.07,-0.47 -139.98,-1.74 -36.92,-1.27 -58.52,-3.29 -71.49,-7.76 -12.98,-4.46 -17.32,-11.39 -19.85,-39.54 -2.53,-28.14 -3.24,-77.52 -6.07,-106.79 -2.83,-29.27 -7.79,-38.44 -15.16,-62.98 -7.37,-24.53 -17.17,-64.43 -23.14,-95.8 -5.97,-31.36 -8.11,-54.18 -5.45,-85.44 2.66,-31.25 10.12,-70.94 4.41,-92.56 -5.72,-21.62 -24.63,-25.19 -40.89,-26.97 -16.26,-1.78 -29.87,-1.78 -41.78,11.83 -11.92,13.62 -22.14,40.85 -27.24,68.93 -5.11,28.08 -5.11,57.02 -4.26,79.99 0.85,22.98 2.56,40.01 5.11,63.83 2.55,23.83 5.96,54.47 7.66,81.7 1.7,27.23 1.7,51.06 1.7,75.74 0,24.68 0,50.21 0,73.18 0,22.98 0,43.41 0.85,57.87 0.85,14.47 2.56,22.98 15.33,28.93 12.76,5.96 36.58,9.37 38.29,16.17 1.7,6.81 -18.73,17.03 -8.51,25.54 10.21,8.51 51.05,15.31 87.65,19.56 36.59,4.26 68.93,5.97 102.12,6.82 33.19,0.85 67.23,0.85 102.97,0.85 35.74,0 73.19,0 115.74,-1.7 42.55,-1.7 90.2,-5.11 128.5,-6.81 38.29,-1.7 67.23,-1.7 91.06,-2.55 23.82,-0.85 42.55,-2.56 60.42,-10.22 17.87,-7.66 34.89,-21.27 41.55,-44.34 6.65,-23.06 2.95,-55.57 1.1,-78.09 -1.86,-22.51 -1.86,-35.02 -5.11,-49.4 -3.26,-14.38 -9.76,-30.63 -17.27,-44.71 -7.51,-14.08 -16.02,-25.99 -25.38,-35.36 -9.36,-9.36 -19.57,-16.16 -24.67,-27.23 -5.11,-11.06 -5.11,-26.37 0.85,-45.1 5.95,-18.72 17.87,-40.84 34.04,-57.01 16.16,-16.17 36.59,-26.39 58.72,-40.86 22.12,-14.46 45.95,-33.19 64.67,-51.06 18.72,-17.87 32.34,-34.89 51.06,-49.36 18.72,-14.46 42.55,-26.38 61.28,-34.04 18.72,-7.65 32.33,-11.06 64.67,-18.72 32.34,-7.65 83.4,-19.57 125.1,-25.53 41.7,-5.95 74.03,-5.95 96.16,-5.95 22.13,0 34.04,0 50.21,0.85 16.17,0.85 36.6,2.55 52.76,5.95 16.17,3.41 28.09,8.51 29.79,22.13 1.7,13.62 -6.81,35.74 -18.73,52.76 -11.91,17.02 -27.22,28.94 -38.29,51.91 -11.06,22.98 -17.87,57.02 -22.13,85.1 -4.25,28.09 -5.95,50.21 -5.1,74.04 0.85,23.83 4.26,49.36 7.66,71.48 3.4,22.13 6.81,40.86 11.06,62.13 4.26,21.28 9.36,45.1 16.17,67.22 6.81,22.13 15.32,42.56 21.27,57.02 5.96,14.47 9.37,22.98 34.04,36.59 24.68,13.62 70.64,32.35 111.48,40.86 40.85,8.51 76.6,6.81 109.79,4.25 33.19,-2.55 63.82,-5.95 93.6,-7.66 29.79,-1.7 58.73,-1.7 103.83,-0.85 45.1,0.85 106.38,2.56 145.52,0.85 39.15,-1.7 56.17,-6.8 74.04,-13.61 17.87,-6.81 36.6,-15.32 52.76,-27.24 16.17,-11.91 29.79,-27.22 33.19,-53.61 3.4,-26.38 -3.4,-63.82 -10.21,-88.5 -6.81,-24.68 -13.61,-36.6 -28.08,-49.37 -14.47,-12.76 -36.59,-26.37 -52.76,-36.59 -16.17,-10.21 -26.39,-17.01 -35.75,-28.08 -9.36,-11.06 -17.87,-26.37 -10.21,-41.69 7.66,-15.32 31.49,-30.64 48.51,-45.11 17.02,-14.47 27.23,-28.08 31.48,-45.96 4.26,-17.87 2.56,-39.99 3.41,-52.76 0.85,-12.76 4.26,-16.17 14.62,-35.99 10.37,-19.82 27.69,-56.07 36.35,-74.19 8.67,-18.12 8.67,-18.12 -0.5,-36.34 -9.16,-18.22 -27.48,-54.65 -43.94,-72.42z"/>
  <path class="fil6 str6" d="M2290.1 5199.55c-17.72,-17.55 -53.14,-18.6 -79.65,-10.32 -26.52,8.28 -44.13,25.89 -61.75,38.61 -17.62,12.73 -35.23,20.56 -61.65,25.45 -26.43,4.9 -61.67,6.85 -100.81,8.81 -39.15,1.96 -82.21,3.91 -124.29,7.82 -42.08,3.92 -83.19,9.8 -133.1,26.43 -49.91,16.64 -108.63,44.04 -135.05,74.38 -26.43,30.34 -20.56,63.61 9.78,88.08 30.34,24.47 85.14,40.12 136.04,51.86 50.89,11.75 97.86,19.58 153.65,36.22 55.78,16.64 120.37,42.08 151.69,81.23 31.31,39.15 29.36,91.99 51.87,125.26 22.51,33.28 69.48,46.99 152.67,61.67 83.19,14.68 202.58,30.33 316.11,41.09 113.53,10.77 221.18,16.65 362.11,19.58 140.93,2.94 315.14,2.94 493.25,2.94 178.12,0 360.16,0 524.57,0 164.42,0 311.22,0 449.21,-2.94 137.99,-2.93 267.18,-8.81 337.64,-34.26 70.46,-25.44 82.21,-70.45 91.99,-108.62 9.79,-38.17 17.62,-69.49 89.06,-99.83 71.45,-30.34 206.5,-59.7 313.17,-78.3 106.68,-18.59 184.98,-26.41 226.08,-61.65 41.11,-35.23 45.02,-97.86 42.08,-135.05 -2.93,-37.19 -12.71,-48.94 -36.2,-69.49 -23.49,-20.55 -60.68,-49.91 -122.34,-70.46 -61.65,-20.55 -147.78,-32.3 -226.07,-30.34 -78.29,1.96 -148.76,17.61 -223.14,29.35 -74.37,11.75 -152.67,19.58 -194.75,10.77 -42.08,-8.8 -47.96,-34.25 -68.51,-62.63 -20.55,-28.38 -55.79,-59.7 -92,-84.17 -36.21,-24.46 -73.4,-42.08 -101.69,-53.72 -28.29,-11.63 -47.67,-17.3 -64.98,-13.26 -17.3,4.04 -32.51,17.78 -44.09,32.4 -11.58,14.62 -19.53,30.11 -11.11,48.68 8.43,18.58 33.21,40.22 49.89,54.25 16.68,14.03 25.26,20.44 34.22,31.87 8.97,11.44 18.33,27.89 24.71,50.87 6.38,22.98 9.79,52.48 9.71,72.3 -0.07,19.83 -3.61,29.98 -17.94,43.45 -14.32,13.48 -39.43,30.28 -76.45,41.03 -37.01,10.76 -85.95,15.46 -131.2,17.49 -45.24,2.04 -86.81,1.4 -131.84,2.59 -45.03,1.19 -93.53,4.22 -136.08,5.02 -42.55,0.8 -79.14,-0.61 -116.02,-8.13 -36.88,-7.52 -74.04,-21.14 -98.3,-34.05 -24.25,-12.91 -35.59,-25.1 -49.35,-62.26 -13.76,-37.16 -29.92,-99.29 -53.12,-125.06 -23.19,-25.77 -53.4,-15.2 -72.43,-10.89 -19.02,4.31 -26.85,2.36 -49.36,1.38 -22.51,-0.98 -59.7,-0.98 -99.83,-0.98 -40.12,0 -83.18,0 -125.26,0 -42.09,0 -83.19,0 -116.65,-2.48 -33.47,-2.48 -59.29,-7.44 -66.81,6.12 -7.53,13.56 3.23,45.65 6.21,76.44 2.97,30.79 -1.86,60.3 -7.22,79.73 -5.36,19.44 -11.25,28.8 -23.71,37.92 -12.47,9.12 -31.51,17.99 -61.32,23.23 -29.82,5.25 -70.41,6.87 -112.12,8.81 -41.72,1.95 -84.56,4.22 -125.26,5.64 -40.71,1.42 -79.29,1.98 -107.16,2.25 -27.87,0.27 -45.04,0.23 -70.72,-0.28 -25.69,-0.51 -59.89,-1.5 -92.94,-3.84 -33.06,-2.33 -64.96,-6.02 -89.69,-15.87 -24.74,-9.85 -42.31,-25.87 -57.11,-44.65 -14.8,-18.78 -26.84,-40.32 -32.87,-68.11 -6.03,-27.79 -6.05,-61.83 -23.77,-79.38z"/>
  <path class="fil7 str7" d="M3365.78 4813.48c-39.62,8.18 -61.17,14.42 -82.16,23.21 -21,8.8 -41.42,20.14 -60.14,34.04 -18.73,13.9 -35.75,30.36 -60.1,50.26 -24.36,19.91 -56.04,43.27 -76.6,58.59 -20.57,15.32 -30.02,22.6 -38.12,30.66 -8.1,8.07 -14.85,16.93 -20.52,26.43 -5.68,9.5 -10.27,19.65 -10.85,34.68 -0.58,15.03 2.84,34.94 13.71,61.4 10.87,26.46 29.18,59.48 61.06,67.53 31.88,8.05 77.34,-8.86 100.07,-17.32 22.72,-8.45 22.72,-8.45 32.12,-8.53 9.4,-0.08 28.19,-0.25 58.47,-0.33 30.27,-0.08 72.03,-0.08 118.07,1.58 46.05,1.66 96.4,4.97 136.35,11.01 39.95,6.05 69.51,14.83 82.44,8.86 12.94,-5.97 9.26,-26.68 6.26,-55.14 -2.99,-28.45 -5.29,-64.66 -5.72,-88.91 -0.42,-24.25 1.02,-36.56 11.81,-65.55 10.8,-28.98 30.94,-74.65 44.13,-106.28 13.19,-31.63 19.44,-49.21 8.8,-62.69 -10.64,-13.47 -38.15,-22.83 -68.31,-27.47 -30.16,-4.63 -62.97,-4.53 -108.22,0.57 -45.24,5.11 -102.92,15.22 -142.55,23.4z"/>
  <ellipse class="fil5 str5" cx="3807.09" cy="2116.56" rx="1094.86" ry="1059.35"/>
  <ellipse class="fil8 str8" cx="3810.88" cy="2128.23" rx="945.99" ry="941.46"/>
  <ellipse class="fil9 str9" cx="3807.09" cy="2116.56" rx="735.47" ry="697.9"/>
  <path class="fil5 str5" d="M3453.86 2362.36c7.42,168.9 36.39,103.97 108.39,138.56 7.15,3.44 3.9,33.69 -0.1,68.29 -3.82,33.03 -11.27,57.01 10.2,56.84 25.89,-0.2 55.85,4.08 89.52,2.73 19.13,-0.76 10.23,-11.98 12.14,-26.32 3.2,-23.91 2.15,-59.88 5.1,-90.6 1.87,-19.58 39.12,-8.52 63.77,-6.36 20.02,1.75 37.63,4.02 55.11,3.27 27.92,-1.19 14.05,15.07 15.11,28.94 0.2,2.63 0.47,5.41 0.38,8.23 -1.03,32.19 6.2,59.79 4.11,78.6 -1.93,17.32 0.83,15.24 25.54,17.95 23.72,2.61 35.67,6.29 70.01,7.05 14.14,0.31 13.35,-8.63 12.38,-12.13 -1.16,-4.2 -4.23,-4.48 -4.37,-23.37 -0.28,-36.99 -1.49,-66.52 -0.21,-105.71 0.31,-9.73 13.95,-6.79 33.13,-4.56 11.96,1.38 50.31,-1.97 64.72,-4.34 63.47,-10.43 106.22,-25.75 138.79,-83.4 22.74,-40.27 22.48,-111.59 19.11,-158.18 -3.45,-47.7 -32.32,-91.29 -95.24,-111.1 -25.58,-8.06 -44.85,-2.26 -26.82,-25.84 9.63,-12.61 48.68,-28.11 59.11,-40.42 41.82,-49.33 64.15,-34.13 47.43,-155.13 -5.83,-42.26 -20.48,-79.73 -45.23,-120.5 -15.3,-25.22 -60.66,-71.1 -89.56,-71.36 -10.36,-0.09 -63.4,-18.04 -70.1,-20.91 -13.18,-5.65 -29.32,-7.1 -32.57,-27.51 -1.26,-7.94 -1.75,-15.97 -1.86,-24 -0.17,-11.76 -0.67,-20.26 -0.37,-36.99 0.17,-9.31 7.54,-27.62 -1.27,-35.07 -10.33,-8.73 -30.29,0.97 -51.51,-0.51 -21.54,-1.51 -43.79,-6.3 -51.5,-0.52 -12.15,9.11 8.03,68.13 4.05,96.26 -1.74,12.36 -44.01,3.37 -79.18,7.33 -22.03,2.47 -28.42,4.78 -56.46,-0.12 -2.23,-0.39 -3.46,-25.11 -4.74,-47.62 -0.39,-7 6.04,-33.21 -2.37,-41.21 -11.02,-10.5 -48.1,-8.39 -62.99,-6.4 -9.63,1.28 -37.09,-6.04 -44.48,6.57 -7.04,12.03 5.75,43.35 3.47,72.6 -2.32,29.76 -22.14,28.02 -45.02,25.17 -33.14,-4.13 -75.26,2.09 -74.91,35.03 0.49,44.89 -8.77,128.5 -5.57,420.77 0.75,68.82 -2.56,37.09 4.86,205.99z"/>
  <path class="fil10 str5" d="M3555.85 1829.39c-3.5,5.11 -5.65,12.65 -6.73,51.94 -1.07,39.29 -1.07,110.33 0.27,148.82 1.35,38.48 4.04,44.4 72.39,48.44 68.36,4.03 202.38,6.19 276.38,5.65 74.01,-0.54 88.01,-3.76 100.65,-13.72 12.65,-9.96 23.96,-26.64 31.49,-51.67 7.54,-25.03 11.3,-58.4 11.57,-85.31 0.27,-26.91 -2.96,-47.37 -8.61,-62.17 -5.65,-14.8 -13.73,-23.95 -33.11,-32.83 -19.37,-8.88 -50.04,-17.49 -103.33,-22.06 -53.28,-4.58 -129.18,-5.12 -187.58,-4.04 -58.39,1.07 -99.3,3.76 -122.18,6.45 -22.87,2.69 -27.71,5.39 -31.21,10.5z"/>
  <path class="fil11 str5" d="M3572.31 2176.23c-7.8,3.5 -12.65,7.8 -16.42,15.34 -3.76,7.53 -6.45,18.3 -7.53,38.48 -1.07,20.18 -0.54,49.79 -0.81,71.59 -0.27,21.8 -1.34,35.79 -1.07,51.13 0.27,15.34 1.88,32.03 5.11,42.26 3.23,10.22 8.08,13.99 15.34,16.95 7.27,2.96 16.95,5.12 39.56,6.73 22.61,1.61 58.13,2.69 90.16,3.23 32.03,0.53 60.55,0.53 87.73,0.8 27.18,0.27 53.02,0.81 78.04,1.08 25.03,0.27 49.26,0.27 70.25,-0.53 20.99,-0.81 38.75,-2.43 54.09,-4.85 15.34,-2.42 28.26,-5.65 37.41,-11.3 9.15,-5.65 14.54,-13.73 18.03,-26.38 3.5,-12.65 5.12,-29.87 5.92,-48.17 0.81,-18.31 0.81,-37.68 0,-55.17 -0.8,-17.5 -2.42,-33.1 -4.3,-44.94 -1.88,-11.84 -4.04,-19.92 -9.96,-27.72 -5.92,-7.81 -15.61,-15.34 -25.57,-19.65 -9.96,-4.31 -20.18,-5.38 -40.64,-6.99 -20.45,-1.62 -51.13,-3.78 -78.31,-4.85 -27.18,-1.08 -50.87,-1.08 -76.98,-1.08 -26.1,0 -54.62,0 -81.81,-0.8 -27.18,-0.81 -53.01,-2.43 -74.27,-3.23 -21.26,-0.81 -37.95,-0.81 -51.68,0.54 -13.72,1.34 -24.48,4.03 -32.29,7.53z"/>
  <polyline class="fil12 str5" points="3920.94,2508.33 3925.98,2640.52 3813.08,2642.77 3814.11,2498.56 3676.08,2499.59 3678.14,2633.5 3557.62,2628.35 3562.25,2500.92 3453.59,2480.02 3454.62,1701.3 3571.21,1700.15 3571.02,1596.23 3678.14,1596.23 3683.61,1691.45 3817.36,1691.73 3817.2,1587.99 3920.21,1589.02 3923.71,1685.08 "/>
  <path class="fil13 str10" d="M4100.38 626.09c38.92,20.45 61.86,40.41 81.32,59.87 19.46,19.45 35.42,38.41 49.39,61.86 13.97,23.45 25.95,51.38 35.92,75.83 9.98,24.44 17.96,45.4 23.44,67.35 5.49,21.95 8.49,44.89 9.98,67.84 1.5,22.95 1.5,45.9 -5.49,70.35 -6.98,24.44 -20.94,50.38 -31.86,69.21 -10.91,18.82 -18.77,30.53 -4.14,43.52 14.64,12.98 51.78,27.25 83.38,40.93 31.6,13.67 57.68,26.77 84.08,42.7 26.41,15.93 53.14,34.71 81.34,59.08 28.2,24.36 57.87,54.33 79.68,75.8 21.82,21.46 35.79,34.43 52.75,53.89 16.96,19.45 36.92,45.4 53.1,69.58 16.19,24.18 28.6,46.6 37.58,38.62 8.98,-7.98 14.53,-46.37 16.8,-82.52 2.27,-36.16 1.28,-70.08 -5.71,-118.97 -6.98,-48.9 -19.95,-112.75 -30.93,-177.1 -10.97,-64.36 -19.95,-129.22 -33.92,-176.61 -13.97,-47.39 -32.92,-77.33 -50.88,-104.76 -17.96,-27.44 -34.93,-52.39 -57.88,-82.82 -22.95,-30.43 -51.88,-66.35 -82.81,-95.28 -30.93,-28.94 -63.86,-50.89 -100.28,-68.07 -36.41,-17.18 -76.32,-29.6 -132.2,-43.07 -55.87,-13.47 -127.71,-27.99 -176.1,-34.75 -48.39,-6.77 -73.34,-5.77 -90.3,-0.28 -16.96,5.49 -25.94,15.46 -2.99,30.93 22.95,15.46 77.82,36.42 116.73,56.87z"/>
  <path class="fil13 str10" d="M2989.1 556.72c-50.39,8.98 -85.31,14.41 -122.22,23.61 -36.92,9.2 -75.84,22.17 -110.76,37.14 -34.92,14.96 -65.85,31.93 -95.28,52.39 -29.44,20.45 -57.37,44.39 -83.31,71.83 -25.95,27.44 -49.89,58.37 -66.85,89.3 -16.97,30.93 -26.94,61.86 -35.92,94.79 -8.98,32.92 -16.97,67.84 -17.47,114.24 -0.5,46.39 6.49,104.26 8.49,160.64 1.99,56.37 -1.01,111.24 -2.5,156.64 -1.5,45.4 -1.5,81.32 1.99,114.75 3.49,33.42 10.48,64.35 28.94,88.3 18.45,23.94 48.39,40.91 75.83,50.89 27.43,9.97 52.38,12.97 87.8,32.58 35.41,19.61 81.31,55.85 119.46,39.87 38.14,-15.99 68.55,-84.18 108.19,-146.93 39.63,-62.75 88.49,-120.05 123.35,-157.73 34.86,-37.69 55.72,-55.75 56,-72.48 0.27,-16.73 -20.02,-32.13 -49.62,-48.3 -29.61,-16.18 -68.53,-33.15 -98.96,-57.09 -30.43,-23.95 -52.38,-54.88 -65.35,-81.82 -12.97,-26.94 -16.97,-49.89 -18.96,-72.34 -2,-22.45 -2,-44.4 2.49,-63.85 4.49,-19.46 13.47,-36.42 30.44,-62.86 16.96,-26.44 41.9,-62.36 62.86,-86.3 20.95,-23.95 37.91,-35.93 61.86,-51.39 23.94,-15.47 54.87,-34.42 78.32,-56.87 23.44,-22.45 39.41,-48.4 55.78,-76.55 16.36,-28.16 33.12,-58.54 41.11,-79.99 7.98,-21.45 7.18,-33.98 -26.14,-33.98 -33.33,0 -99.19,12.53 -149.57,21.51z"/>
  <path class="fil2 str2" d="M2638.9 4323.2c-13.77,-9.18 -32.13,-4.59 -56.22,2.29 -24.1,6.89 -53.94,16.06 -85.49,28.68 -31.56,12.63 -64.84,28.69 -94.67,45.9 -29.84,17.22 -56.23,35.58 -74.01,72.3 -17.79,36.72 -26.97,91.8 -25.82,133.11 1.14,41.31 12.62,68.85 39.59,84.91 26.96,16.07 69.41,20.66 99.82,6.31 30.41,-14.34 48.77,-47.61 58.53,-75.15 9.75,-27.54 10.9,-49.35 30.98,-64.27 20.08,-14.91 59.1,-22.95 85.49,-29.84 26.39,-6.88 40.16,-12.61 47.05,-37.29 6.88,-24.67 6.88,-68.27 2.29,-101.55 -4.59,-33.28 -13.77,-56.22 -27.54,-65.4z"/>
  <path class="fil3 str3" d="M2624.56 4071.89c-15.5,-17.21 -39.59,-24.09 -57.95,-14.34 -18.36,9.75 -30.99,36.15 -52.21,56.23 -21.23,20.08 -51.07,33.85 -81.47,37.86 -30.41,4.02 -61.4,-1.71 -102.71,0.01 -41.31,1.72 -92.94,10.9 -126.22,30.4 -33.28,19.51 -48.19,49.35 -61.39,80.9 -13.2,31.56 -24.67,64.83 -43.03,83.76 -18.36,18.94 -43.61,23.53 -57.95,44.76 -14.34,21.23 -17.79,59.09 -18.93,93.51 -1.15,34.43 -0.01,65.42 6.31,91.81 6.31,26.39 17.78,48.2 34.42,64.83 16.64,16.64 38.45,28.12 61.4,34.43 22.95,6.31 47.04,7.46 74.58,9.75 27.54,2.3 58.53,5.74 77.73,0.56 19.2,-5.17 26.62,-18.97 28.92,-33.89 2.29,-14.91 -0.54,-30.95 -7.12,-51.6 -6.58,-20.64 -16.91,-45.88 -7.43,-75.09 9.47,-29.21 38.75,-62.37 60.56,-83.99 21.8,-21.61 36.12,-31.66 59.07,-44.34 22.94,-12.68 54.49,-27.98 89.22,-41.53 34.73,-13.55 72.64,-25.36 96.26,-30.52 23.61,-5.16 32.95,-3.68 37.81,-16.71 4.85,-13.03 5.24,-40.57 7.73,-70.41 2.48,-29.83 7.07,-61.96 5.92,-91.8 -1.15,-29.83 -8.03,-57.37 -23.52,-74.59z"/>
  <path class="fil2 str2" d="M2540.22 3871.08c-27.54,12.62 -55.08,34.43 -70.57,51.64 -15.49,17.21 -18.94,29.84 -33.85,43.61 -14.92,13.77 -41.32,28.68 -59.68,38.43 -18.36,9.76 -28.68,14.35 -41.87,26.4 -13.2,12.05 -29.27,31.55 -52.79,43.6 -23.52,12.05 -54.51,16.64 -91.8,20.65 -37.3,4.02 -80.9,7.47 -127.37,12.06 -46.48,4.59 -95.82,10.32 -129.67,5.73 -33.85,-4.59 -52.21,-19.5 -87.78,-37.29 -35.58,-17.79 -88.36,-38.44 -118.19,-38.44 -29.84,0 -36.73,20.65 -40.17,53.35 -3.44,32.71 -3.44,77.47 -2.86,110.17 0.57,32.7 1.71,53.36 9.17,74.58 7.46,21.23 21.23,43.04 37.3,56.23 16.06,13.2 34.42,17.79 49.91,32.13 15.49,14.35 28.12,38.44 41.89,57.95 13.77,19.51 28.68,34.42 44.75,48.76 16.06,14.35 33.28,28.12 51.07,37.3 17.78,9.18 36.14,13.77 53.77,16.87 17.63,3.1 34.52,4.7 43.19,-6.68 8.66,-11.37 9.09,-35.72 12.21,-59 3.12,-23.27 8.94,-45.47 16.51,-60.49 7.56,-15.01 16.88,-22.86 28.99,-33.67 12.1,-10.8 26.98,-24.58 39.15,-42.08 12.17,-17.49 21.63,-38.72 32.32,-59.43 10.68,-20.71 22.61,-40.91 43.07,-58.09 20.45,-17.17 49.44,-31.31 74.75,-39.76 25.3,-8.45 46.93,-11.21 69.77,-12.35 22.83,-1.14 46.88,-0.68 71.28,-2.79 24.39,-2.11 49.13,-6.81 71.98,-18.23 22.84,-11.42 43.8,-29.57 58.8,-43.14 15,-13.57 24.06,-22.56 38.25,-24.67 14.18,-2.1 33.49,2.68 43.15,5.07 9.66,2.39 9.66,2.39 13.97,-13.1 4.3,-15.49 12.9,-46.47 19.5,-75.73 6.6,-29.26 11.19,-56.8 6.6,-78.03 -4.59,-21.23 -18.36,-36.15 -39.01,-41.89 -20.66,-5.74 -48.2,-2.29 -75.74,10.33z"/>
  <path class="fil0 str0" d="M1771.97 3082.76c-17.79,-14.92 -49.92,-10.33 -68.85,8.03 -18.94,18.36 -24.67,50.48 -39.59,76.88 -14.92,26.39 -39.01,47.04 -68.27,51.63 -29.27,4.59 -63.69,-6.88 -79.75,12.63 -16.07,19.5 -13.78,69.99 -14.35,131.95 -0.57,61.97 -4.02,135.41 -5.74,214.01 -1.72,78.61 -1.72,162.37 0,223.19 1.72,60.82 5.17,98.69 18.94,121.64 13.77,22.95 37.86,30.98 55.65,39.58 17.79,8.61 29.26,17.79 44.18,28.12 14.92,10.33 33.28,21.8 56.86,30.4 23.58,8.6 52.38,14.33 82.22,23.03 29.83,8.7 60.7,20.38 78.78,27.6 18.08,7.22 23.37,9.98 38,16.19 14.63,6.22 38.6,15.89 61.41,20.76 22.8,4.88 44.44,4.97 61.6,4.46 17.15,-0.51 29.83,-1.62 48.09,-3.32 18.26,-1.7 42.12,-3.99 75.61,-7.53 33.49,-3.53 76.61,-8.31 110.34,-16.35 33.73,-8.04 58.05,-19.36 81.32,-33.39 23.27,-14.02 45.49,-30.77 66.54,-45.55 21.05,-14.77 40.95,-27.58 62.02,-46.11 21.06,-18.52 43.31,-42.76 59.57,-71.07 16.25,-28.3 26.51,-60.68 29.93,-95.23 3.41,-34.54 -0.04,-71.25 -8.64,-106.83 -8.61,-35.57 -22.38,-69.99 -40.16,-92.37 -17.79,-22.38 -39.59,-32.7 -69.42,-80.9 -29.84,-48.19 -67.7,-134.26 -97.53,-192.21 -29.84,-57.94 -51.65,-87.78 -71.73,-95.23 -20.08,-7.46 -38.44,7.45 -65.98,33.27 -27.54,25.82 -64.26,62.54 -92.95,81.47 -28.69,18.94 -49.34,20.08 -61.96,3.44 -12.63,-16.63 -17.22,-51.06 -30.41,-80.89 -13.2,-29.84 -35,-55.08 -68.27,-70.57 -33.28,-15.5 -78.04,-21.23 -102.13,-41.31 -24.1,-20.08 -27.55,-54.51 -45.33,-69.42z"/>
  <path class="fil14 str11" d="M1873.52 3470.61c-13.77,-19.51 -22.95,-48.2 -36.72,-67.71 -13.77,-19.51 -32.13,-29.83 -49.34,-32.7 -17.21,-2.87 -33.28,1.72 -52.78,18.36 -19.51,16.64 -42.46,45.32 -57.38,75.73 -14.92,30.41 -21.8,62.54 -25.82,102.7 -4.02,40.17 -5.16,88.36 4.02,145.16 9.18,56.81 28.68,122.21 55.08,152.04 26.39,29.84 59.66,24.11 105.56,18.94 45.9,-5.16 104.43,-9.75 135.99,2.87 31.55,12.62 36.14,42.46 40.16,70.57 4.01,28.11 7.46,54.51 28.69,68.28 21.22,13.77 60.24,14.91 90.65,4.01 30.4,-10.9 52.21,-33.85 63.11,-61.97 10.9,-28.11 10.9,-61.38 29.84,-79.74 18.93,-18.36 56.79,-21.81 89.5,-33.86 32.7,-12.04 60.24,-32.7 66.55,-61.39 6.31,-28.68 -8.6,-65.4 -32.7,-87.78 -24.1,-22.37 -57.37,-30.41 -86.06,-49.34 -28.69,-18.93 -52.78,-48.77 -68.84,-73.44 -16.07,-24.67 -24.11,-44.18 -52.22,-54.51 -28.12,-10.33 -76.31,-11.47 -112.46,-12.62 -36.15,-1.15 -60.24,-2.29 -81.47,-8.03 -21.23,-5.74 -39.59,-16.06 -53.36,-35.57z"/>
  <path class="fil3 str3" d="M1576.89 2884.81c-24.67,-1.72 -38.44,10.9 -47.62,32.13 -9.18,21.23 -13.77,51.06 -18.93,80.33 -5.17,29.26 -10.9,57.94 -13.19,88.93 -2.3,30.98 -1.16,64.25 4.97,87.34 6.12,23.09 17.21,35.99 33.57,41.92 16.35,5.93 37.96,4.88 55.42,1.37 17.46,-3.52 30.76,-9.5 45.07,-24.73 14.31,-15.23 29.62,-39.7 40.95,-58.12 11.32,-18.43 18.65,-30.81 27.87,-39.71 9.21,-8.91 20.31,-14.33 31.79,-15.67 11.47,-1.34 23.32,1.41 32.85,8.69 9.52,7.28 16.7,19.1 24.26,30.67 7.55,11.57 15.48,22.89 27.76,32.41 12.28,9.51 28.92,17.22 45.94,24.11 17.02,6.88 34.43,12.94 49.92,20.79 15.48,7.85 29.05,17.49 47.6,18.73 18.55,1.24 42.08,-5.91 76.22,-9.48 34.14,-3.58 78.9,-3.58 113.61,0.73 34.71,4.3 59.38,12.91 78.89,12.34 19.5,-0.58 33.85,-10.33 43.32,-23.81 9.46,-13.49 14.05,-30.7 16.35,-51.93 2.29,-21.23 2.29,-46.47 0,-85.48 -2.3,-39.02 -6.89,-91.81 -19.51,-123.36 -12.62,-31.56 -33.28,-41.89 -54.5,-67.13 -21.23,-25.25 -43.04,-65.41 -68.28,-93.52 -25.25,-28.12 -53.93,-44.18 -83.19,-64.26 -29.27,-20.09 -59.1,-44.18 -78.03,-68.85 -18.94,-24.67 -26.98,-49.92 -54.52,-68.28 -27.54,-18.36 -74.58,-29.83 -114.17,-29.26 -39.59,0.57 -71.72,13.2 -95.81,58.53 -24.1,45.32 -40.17,123.35 -47.62,181.87 -7.46,58.52 -6.32,97.54 -23.53,109.02 -17.21,11.47 -52.79,-4.6 -77.46,-6.32z"/>
  <path class="fil2 str2" d="M1893.03 2355.24c-36.72,5.74 -70,16.06 -91.8,31.56 -21.81,15.49 -32.13,36.14 -39.59,57.95 -7.46,21.8 -12.05,44.75 -6.81,61.72 5.24,16.96 20.32,27.93 38.38,33.13 18.06,5.2 39.1,4.61 63.31,8.88 24.21,4.26 51.59,13.38 74.36,29.32 22.77,15.93 40.95,38.69 58.79,58.46 17.84,19.76 35.35,36.53 55.64,52.93 20.28,16.39 43.33,32.42 67.23,53.95 23.89,21.52 48.61,48.56 66.58,69.94 17.97,21.37 29.17,37.08 41.76,66.94 12.58,29.85 26.54,73.83 38.88,105.58 12.33,31.75 23.04,51.26 21.89,70.77 -1.15,19.5 -14.15,39.01 -25.82,53.93 -11.67,14.91 -21.99,25.24 -40.92,32.7 -18.94,7.46 -46.48,12.05 -70.58,16.64 -24.1,4.59 -44.75,9.17 -67.68,17.58 -22.94,8.4 -48.15,20.63 -67.11,27.4 -18.97,6.76 -31.7,8.07 -34.29,17.07 -2.6,9 4.92,25.68 11.03,40.85 6.11,15.17 10.81,28.83 15.88,42.31 5.06,13.48 10.51,26.79 18.35,35.26 7.83,8.47 18.07,12.1 31.89,8.92 13.82,-3.17 31.23,-13.16 49.83,-27.13 18.59,-13.97 38.36,-31.93 55.3,-47.1 16.93,-15.18 31.01,-27.57 49.29,-30.59 18.27,-3.03 40.73,3.32 56.86,14.29 16.13,10.97 25.93,26.58 39.41,60.79 13.48,34.21 30.63,87.02 54.12,129.72 23.48,42.71 53.3,75.31 74.43,97.97 21.13,22.66 33.59,35.4 46.22,32.3 12.63,-3.1 25.45,-22.04 33,-40.69 7.55,-18.64 9.85,-37 12.15,-61.1 2.29,-24.1 4.58,-53.93 4.58,-87.79 0,-33.85 -2.29,-71.71 -9.17,-127.94 -6.89,-56.23 -18.37,-130.81 -25.25,-183.59 -6.89,-52.79 -9.18,-83.78 -12.05,-128.53 -2.87,-44.75 -6.31,-103.27 -6.31,-156.05 0,-52.79 3.44,-99.84 0,-141.72 -3.45,-41.89 -13.77,-78.6 -40.16,-84.34 -26.4,-5.74 -68.85,19.51 -102.13,34.43 -33.28,14.91 -57.37,19.5 -76.88,13.76 -19.51,-5.74 -34.42,-21.8 -51.06,-39.01 -16.64,-17.22 -35,-35.57 -56.8,-45.32 -21.81,-9.76 -47.05,-10.91 -61.39,-20.66 -14.35,-9.76 -17.8,-28.12 -28.7,-56.8 -10.9,-28.69 -29.26,-67.71 -58.52,-86.64 -29.26,-18.93 -69.42,-17.79 -106.14,-12.05z"/>
  <path class="fil0 str0" d="M2550.46 1897.21c48.82,0 76.53,0 91.05,12.54 14.51,12.53 15.83,37.61 15.83,65.32 0,27.71 -1.32,58.07 1.98,83.14 3.3,25.07 11.22,44.87 21.7,77 10.48,32.13 23.53,76.61 29.49,69.48 5.95,-7.13 4.83,-65.86 4.74,-105.77 -0.1,-39.92 0.83,-61.02 2.87,-83.44 2.03,-22.43 5.17,-46.17 10.2,-73.98 5.03,-27.82 11.95,-59.69 19.8,-90.84 7.84,-31.16 16.59,-61.58 6.46,-76.13 -10.14,-14.56 -39.18,-13.24 -72.17,-12.58 -32.99,0.66 -69.93,0.66 -104.9,-0.66 -34.97,-1.32 -67.97,-3.96 -112.17,1.98 -44.21,5.94 -99.64,20.45 -130.65,40.91 -31.01,20.45 -37.61,46.85 -53.44,62.69 -15.84,15.83 -40.91,21.1 -81.16,26.38 -40.25,5.28 -95.67,10.56 -124.7,22.44 -29.04,11.87 -31.68,30.35 -49.49,54.76 -17.82,24.41 -50.81,54.77 -73.24,75.89 -22.44,21.11 -34.31,32.98 -46.19,51.46 -11.88,18.47 -23.75,43.55 -39.58,72.58 -15.84,29.03 -35.64,62.02 -39.88,95.3 -4.25,33.28 7.05,66.86 20.65,81.84 13.59,14.97 29.48,11.34 51.54,3.79 22.06,-7.55 50.3,-19.02 73.93,-10.54 23.62,8.47 42.64,36.9 57.8,64.16 15.16,27.25 26.45,53.32 45.29,74.21 18.83,20.88 45.19,36.56 67.84,51.96 22.65,15.4 41.59,30.5 59.57,44.56 17.97,14.05 34.99,27.06 64.56,27.4 29.56,0.34 71.68,-11.98 107.84,-23.52 36.15,-11.54 66.36,-22.31 80.35,-18.24 13.99,4.06 11.78,22.94 12.15,40.51 0.37,17.57 3.32,33.81 5.05,48.11 1.73,14.3 2.23,26.66 12.42,34.83 10.19,8.16 30.06,12.14 49.24,12.81 19.17,0.67 37.65,-1.97 59.42,-11.86 21.77,-9.9 46.85,-27.06 63.35,-45.53 16.49,-18.48 24.4,-38.27 49.72,-49.78 25.32,-11.51 68.05,-14.74 77.83,-37.12 9.78,-22.38 -13.38,-63.93 -28.14,-88.05 -14.77,-24.12 -21.13,-30.82 -44.77,-33.51 -23.64,-2.69 -64.54,-1.37 -103.47,-12.58 -38.93,-11.22 -75.88,-34.98 -104.25,-71.93 -28.38,-36.95 -48.17,-87.09 -73.24,-92.37 -25.08,-5.28 -55.43,34.31 -83.14,67.3 -27.71,32.99 -52.79,59.39 -95.01,65.33 -42.23,5.93 -101.62,-8.58 -128.01,-36.29 -26.39,-27.72 -19.8,-68.62 -36.95,-100.95 -17.16,-32.33 -58.06,-56.09 -65.98,-85.12 -7.92,-29.03 17.16,-63.35 50.15,-97 32.99,-33.65 73.89,-66.64 100.29,-88.41 26.39,-21.78 38.26,-32.33 67.3,-44.21 29.03,-11.88 75.21,-25.07 133.28,-31.67 58.06,-6.6 128.01,-6.6 176.84,-6.6z"/>
  <path class="fil14 str11" d="M2653.49 1941.19c-2.64,-10.89 -7.31,-21.17 -24.82,-28.39 -17.51,-7.23 -47.86,-11.41 -77.79,-13.34 -29.93,-1.94 -59.43,-1.64 -88.9,-0.54 -29.48,1.1 -58.92,3 -84.92,5.86 -26,2.86 -48.57,6.69 -70.78,11.97 -22.21,5.28 -44.08,12 -66.22,22.74 -22.15,10.73 -44.59,25.46 -64.35,39.98 -19.77,14.52 -36.88,28.81 -50.53,40.55 -13.65,11.74 -23.85,20.92 -38.07,35.77 -14.22,14.85 -32.47,35.37 -42.67,57.11 -10.21,21.74 -12.38,44.7 -3.68,67.79 8.69,23.09 28.26,46.31 40.54,66.6 12.27,20.28 17.27,37.63 30.29,58.68 13.02,21.04 34.07,45.77 59.07,59.97 24.99,14.2 53.94,17.86 77.36,15.84 23.42,-2.02 41.33,-9.73 63.22,-27.59 21.88,-17.86 47.74,-45.88 68.48,-64.13 20.74,-18.26 36.36,-26.74 56.37,-15.59 20.01,11.15 44.43,41.94 64.36,64.73 19.93,22.79 35.38,37.58 49.84,48.58 14.46,10.99 27.93,18.2 57.43,27.1 29.49,8.89 75,19.49 104.34,32.88 29.34,13.38 42.49,29.55 46.23,21.35 3.73,-8.21 -1.96,-40.81 -7.05,-65.97 -5.09,-25.17 -9.57,-42.91 -13.44,-59.95 -3.87,-17.04 -7.12,-33.38 -20.21,-86.9 -13.1,-53.52 -36.05,-144.21 -37.61,-177.81 -1.56,-33.61 18.25,-10.11 19.47,0.74 1.21,10.84 -16.17,9.05 -26.33,-3.48 -10.16,-12.53 -13.1,-35.8 -14.52,-54.36 -1.43,-18.57 -1.34,-32.44 -1.6,-45.12 -0.27,-12.69 -0.87,-24.19 -3.51,-35.07z"/>
  <path class="fil5 str5" d="M2828.23 2529.53c20.92,5.06 36.98,33.44 41.2,52.17 4.21,18.72 -3.41,27.79 -13.04,44.03 -9.64,16.23 -21.3,39.62 -32.33,55.97 -11.03,16.34 -21.44,25.62 -37.32,33.35 -15.89,7.72 -37.26,13.89 -56.01,24.29 -18.75,10.4 -34.9,25.05 -44.17,36.48 -9.28,11.42 -11.69,19.62 -13.76,31.47 -2.08,11.85 -3.83,27.33 -7.42,57.16 -3.6,29.82 -9.05,73.97 -10.71,118.12 -1.66,44.14 0.48,88.26 3.52,131.22 3.03,42.95 6.97,84.72 5.1,124.2 -1.88,39.47 -9.56,76.65 -10.68,116.2 -1.12,39.55 4.34,81.48 11.07,125.58 6.72,44.11 14.72,90.39 18.44,121.55 3.72,31.17 3.16,47.23 7.26,54.15 4.1,6.92 12.85,4.7 25.46,8.09 12.6,3.4 29.05,12.39 45.53,21.36 16.47,8.98 32.96,17.92 49.37,38.37 16.4,20.46 32.7,52.43 40.35,81 7.64,28.58 6.61,53.78 4.07,82.77 -2.55,29 -6.61,61.79 -8.5,89.82 -1.89,28.03 -1.6,51.28 -2.03,73.06 -0.43,21.79 -1.57,42.09 -5.64,61.78 -4.07,19.7 -11.06,38.77 -13.27,70.15 -2.21,31.38 0.35,75.07 3.86,111.11 3.5,36.04 7.93,64.43 13.13,95.59 5.19,31.17 11.15,65.11 15.43,94.15 4.27,29.05 6.86,53.22 7.8,77.88 0.94,24.66 0.23,49.83 -6.27,69.83 -6.5,20 -18.79,34.84 -31.39,40.47 -12.6,5.64 -25.51,2.08 -41.08,-0.14 -15.57,-2.22 -33.8,-3.08 -57.22,-3.52 -23.43,-0.43 -52.07,-0.43 -75.73,2.53 -23.66,2.96 -42.34,8.87 -58.68,13.35 -16.35,4.49 -30.35,7.54 -45.72,14.09 -15.37,6.56 -32.11,16.61 -46.86,29.09 -14.75,12.49 -27.5,27.39 -38.59,42.44 -11.1,15.06 -20.53,30.26 -29.57,40.16 -9.04,9.9 -17.69,14.51 -46.96,15.1 -29.27,0.6 -79.17,-2.8 -118,-4.51 -38.83,-1.7 -66.6,-1.7 -92.63,-0.84 -26.03,0.87 -50.33,2.61 -71.15,2.61 -20.83,0 -38.18,-1.74 -55.97,-11.72 -17.79,-9.97 -36.01,-28.2 -58.57,-45.12 -22.56,-16.92 -49.46,-32.53 -72.89,-48.15 -23.43,-15.62 -43.38,-31.24 -61.17,-50.77 -17.79,-19.52 -33.41,-42.95 -49.46,-64.65 -16.06,-21.69 -32.54,-41.64 -49.46,-62.9 -16.92,-21.26 -34.28,-43.82 -50.33,-66.38 -16.05,-22.56 -30.81,-45.12 -51.2,-71.15 -20.39,-26.03 -46.42,-55.54 -92.41,-131.9 -45.99,-76.35 -111.93,-199.57 -147.07,-271.16 -35.15,-71.58 -39.49,-91.53 -43.83,-134.49 -4.34,-42.95 -8.67,-108.89 -13.44,-185.69 -4.78,-76.79 -9.98,-164.43 -11.72,-304.57 -1.74,-140.13 0,-332.76 15.19,-438.62 15.18,-105.86 43.81,-124.95 62.47,-162.69 18.66,-37.75 27.33,-94.16 42.95,-147.95 15.62,-53.8 38.18,-105 50.33,-144.48 12.15,-39.48 13.88,-67.24 32.97,-90.23 19.09,-23 55.54,-41.23 84.18,-68.56 28.63,-27.33 49.45,-63.78 81.99,-141 32.54,-77.23 76.8,-195.23 121.05,-273.76 44.25,-78.53 88.51,-117.57 136.23,-145.34 47.72,-27.77 98.92,-44.25 178.32,-71.15 79.39,-26.9 186.99,-64.22 249.04,-85.91 62.04,-21.69 78.52,-27.77 94.57,-29.28 16.04,-1.51 31.63,1.55 41.32,6.12 9.69,4.56 13.47,10.63 21.09,18.77 7.62,8.13 19.09,18.33 34.95,27.83 15.86,9.49 36.11,18.3 57.98,25.35 21.87,7.04 45.35,12.34 67.5,17.22 22.14,4.87 42.95,9.34 63.84,10.68 20.89,1.33 41.87,-0.45 52.36,-1.34 10.48,-0.9 10.48,-0.9 10.1,9.58 -0.39,10.48 -1.16,31.45 -5.91,53.63 -4.75,22.17 -13.49,45.55 -19.85,63.76 -6.37,18.2 -10.37,31.23 -18,26.72 -7.63,-4.52 -18.89,-26.57 -28.22,-40.37 -9.33,-13.81 -16.73,-19.38 -31.67,-22.94 -14.95,-3.57 -37.45,-5.13 -62.23,-5.91 -24.78,-0.78 -51.86,-0.77 -78.7,-1.17 -26.84,-0.4 -53.45,-1.21 -76.09,-0.99 -22.64,0.21 -41.32,1.45 -61.88,4.43 -20.57,2.98 -43.04,7.7 -64.81,14.52 -21.78,6.82 -42.86,15.73 -62.75,24.83 -19.89,9.09 -38.57,18.37 -47.48,28.82 -8.91,10.44 -8.03,22.07 -13.99,31.06 -5.97,8.98 -18.77,15.32 -39.02,20.57 -20.26,5.24 -47.96,9.38 -71.3,13 -23.35,3.61 -42.32,6.71 -56.38,9.6 -14.06,2.89 -23.19,5.59 -33.83,12.67 -10.64,7.07 -22.78,18.54 -36.88,34.23 -14.1,15.69 -30.15,35.6 -44.53,51.65 -14.39,16.04 -27.11,28.21 -39.7,40.79 -12.59,12.58 -25.06,25.57 -36.13,40.15 -11.08,14.58 -20.75,30.76 -30.2,47.46 -9.45,16.69 -18.66,33.92 -24.41,54.33 -5.76,20.41 -8.04,44.02 -12.9,64.55 -4.86,20.53 -12.29,38 -15.81,57.18 -3.53,19.17 -3.16,40.06 -7.85,53.08 -4.7,13.01 -14.48,18.16 -20.93,30.65 -6.45,12.49 -9.58,32.34 -17.48,47.08 -7.91,14.74 -20.6,24.37 -26.76,34.4 -6.17,10.02 -5.83,20.43 -4.07,33.91 1.76,13.47 4.93,30.01 0.04,45.64 -4.89,15.63 -17.83,30.34 -28.66,49.5 -10.83,19.16 -19.55,42.75 -25.92,63.34 -6.38,20.59 -10.41,38.17 -15.01,66.1 -4.6,27.93 -9.76,66.21 -15.24,94.11 -5.49,27.89 -11.29,45.39 -20.63,54.35 -9.35,8.96 -22.22,9.38 -35.13,8.33 -12.91,-1.06 -25.86,-3.58 -40.26,0.52 -14.41,4.09 -30.29,14.8 -41.38,33.55 -11.09,18.74 -17.4,45.51 -22.48,70.89 -5.09,25.37 -8.96,49.35 -11.33,68.18 -2.38,18.82 -3.26,32.49 -3.28,46.92 -0.03,14.43 0.81,29.6 4.05,49.89 3.23,20.28 8.87,45.68 9.55,66.34 0.67,20.66 -3.6,36.58 -5.99,58.58 -2.4,21.99 -2.9,50.04 -3.59,81.9 -0.7,31.87 -1.58,67.54 1.31,99.44 2.89,31.9 9.56,60.02 12.46,108.36 2.89,48.34 2.03,116.89 -1.67,162.04 -3.7,45.15 -10.24,66.9 -10.49,93.86 -0.26,26.97 5.75,59.16 25.4,86.53 19.65,27.38 52.92,49.94 79.04,66.29 26.11,16.35 45.07,26.49 58.83,32.89 13.76,6.4 22.33,9.07 24.9,20.73 2.57,11.67 -0.85,32.34 -3.09,54.93 -2.24,22.6 -3.28,47.14 -2.92,75.52 0.35,28.38 2.12,60.6 6.2,84.21 4.08,23.62 10.48,38.63 17.39,50.41 6.91,11.78 14.33,20.35 30.07,34.65 15.73,14.3 39.77,34.35 59.18,51.57 19.4,17.22 34.16,31.62 44.9,44.74 10.73,13.12 17.44,24.95 32.19,32.76 14.75,7.81 37.54,11.59 63.51,15.79 25.96,4.2 55.09,8.81 70.76,24.61 15.67,15.81 17.86,42.79 24.7,67.09 6.83,24.3 18.31,45.91 28.79,60.24 10.48,14.33 19.97,21.39 42.64,28.75 22.66,7.36 58.49,15.04 82.9,19.37 24.4,4.33 37.38,5.31 53.66,3.37 16.27,-1.94 35.86,-6.81 53.19,-6.54 17.32,0.27 32.38,5.69 39.92,8.39 7.53,2.71 7.53,2.71 21.4,4.72 13.86,2.01 41.59,6.04 64.3,1.79 22.7,-4.24 40.38,-16.76 52.91,-30.25 12.52,-13.48 19.9,-27.93 25.39,-40.95 5.49,-13.01 9.1,-24.58 16.19,-36.45 7.09,-11.87 17.67,-24.05 27.94,-32.02 10.27,-7.97 20.23,-11.73 32.55,-15.55 12.32,-3.81 27,-7.67 42.18,-15.82 15.17,-8.14 30.86,-20.57 39.62,-35.23 8.75,-14.65 10.57,-31.52 10.96,-48.45 0.38,-16.92 -0.69,-33.9 -6.55,-55.71 -5.87,-21.8 -16.54,-48.43 -24.77,-76.69 -8.24,-28.25 -14.03,-58.13 -16.93,-89.99 -2.9,-31.85 -2.9,-65.7 -0.25,-95.27 2.65,-29.56 7.95,-54.86 13.17,-77.67 5.22,-22.81 10.37,-43.14 11.81,-70.76 1.43,-27.61 -0.83,-62.5 -6.23,-82.49 -5.41,-19.99 -13.94,-25.06 -30.83,-25.88 -16.9,-0.82 -42.14,2.63 -61.92,-4.9 -19.78,-7.53 -34.08,-26.03 -41.23,-47 -7.16,-20.96 -7.16,-44.38 -10.43,-81.13 -3.27,-36.74 -9.81,-86.81 -13.05,-114.48 -3.24,-27.67 -3.18,-32.94 4.05,-49.45 7.22,-16.5 21.6,-44.23 29.89,-75.83 8.29,-31.59 10.48,-67.06 3.11,-171.13 -7.38,-104.07 -24.33,-276.75 -33.12,-376.1 -8.8,-99.35 -9.45,-125.38 -9.52,-154.18 -0.07,-28.81 0.43,-60.4 0.58,-81.72 0.15,-21.32 -0.06,-32.36 14.83,-32.95 14.89,-0.6 44.88,9.26 67.59,11.1 22.7,1.83 38.13,-4.35 46.69,-16.33 8.56,-11.99 10.26,-29.78 23.91,-43.12 13.65,-13.34 39.25,-22.25 62.37,-32.64 23.11,-10.4 43.73,-22.3 66.94,-37.37 23.21,-15.07 49.01,-33.32 69.93,-28.25z"/>
  <path class="fil12 str12" d="M3117.43 1354.32c-50.97,-40.84 -101.95,-81.69 -141.68,-113.42 -39.74,-31.74 -68.23,-54.37 -89.32,-78.98 -21.1,-24.62 -34.78,-51.23 -29.55,-84.95 5.23,-33.73 29.39,-74.58 44.35,-116.26 14.96,-41.69 20.74,-84.2 40.69,-118.46 19.94,-34.26 54.06,-60.27 82.53,-84.35 28.46,-24.09 51.28,-46.25 73.73,-77.38 22.45,-31.14 44.54,-71.23 58.31,-104.62 13.76,-33.39 19.19,-60.07 2.33,-64.32 -16.87,-4.26 -56.05,13.92 -98.27,26.99 -42.22,13.06 -87.49,21.02 -129.63,29.87 -42.14,8.84 -81.14,18.56 -141.54,34.69 -60.4,16.13 -142.18,38.65 -187.09,69.91 -44.91,31.26 -52.95,71.24 -65.54,106.74 -12.59,35.5 -29.75,66.5 -42.95,99.51 -13.2,33.01 -22.44,68.01 -35.5,104.17 -13.06,36.16 -29.94,73.47 -38.37,100.97 -8.44,27.5 -8.44,45.2 -9.17,71.59 -0.74,26.39 -2.22,61.48 6.26,106.05 8.48,44.56 26.91,98.61 54.89,158.67 27.97,60.06 65.49,126.14 113.67,169.6 48.18,43.46 107.01,64.29 152.03,75.27 45.02,10.97 76.21,12.07 107.41,13.18"/>
  <path class="fil12 str12" d="M4753.78 1729.5c-3.95,-136.16 -7.89,-272.31 -15.02,-369.9 -7.13,-97.6 -17.44,-156.64 -31.78,-224.66 -14.34,-68.02 -32.71,-145.04 -46.85,-191.93 -14.13,-46.9 -24.02,-63.67 -52.42,-101.74 -28.4,-38.08 -75.29,-97.44 -118.1,-148.83 -42.8,-51.39 -81.52,-94.81 -134.88,-116.54 -53.36,-21.73 -121.36,-21.79 -189.83,-33.32 -68.46,-11.54 -137.38,-34.57 -158,-27.19 -20.61,7.38 7.07,45.16 30.7,68.68 23.63,23.51 43.21,32.77 70.99,52.27 27.79,19.49 63.8,49.23 91.57,82.16 27.77,32.92 47.31,69.04 62.71,115.54 15.41,46.49 26.68,103.36 25.84,152.28 -0.83,48.92 -13.76,89.88 -20.03,128.85 -6.27,38.96 -5.86,75.94 -5.46,112.91"/>
 </g>
</svg>
